<mxfile host="app.diagrams.net" modified="2020-08-19T11:44:03.581Z" agent="5.0 (Windows NT 10.0; Win64; x64) AppleWebKit/537.36 (KHTML, like Gecko) Chrome/84.0.4147.125 Safari/537.36" etag="O63v4qNBF2pUP54E_ma7" version="13.6.3" type="github">
  <diagram name="Page-1" id="b33cb84f-bf7a-9ccf-f142-242d16432e5d">
    <mxGraphModel dx="677" dy="363" grid="1" gridSize="10" guides="1" tooltips="1" connect="1" arrows="1" fold="1" page="1" pageScale="1.5" pageWidth="1169" pageHeight="826" background="#ffffff" math="0" shadow="0">
      <root>
        <mxCell id="0" style=";html=1;" />
        <mxCell id="1" style=";html=1;" parent="0" />
        <mxCell id="QoQtWdzTlLFSfCSJSzJS-2" value="" style="shape=image;verticalLabelPosition=bottom;labelBackgroundColor=#ffffff;verticalAlign=top;aspect=fixed;imageAspect=0;image=data:image/png,iVBORw0KGgoAAAANSUhEUgAAAE8AAABXCAYAAABFsRhwAAAgAElEQVR4AYy7ZXBVadq2PfU+3T3zjHQ33TSNu1sS4g6EoCEQJe5G3N3d3d0JEaJEiECIogkECe7u7hxfZcPMW++fr2ZX3bVXtqzadeQ8L7nXtf7Skh5EQ5gtzamBtOVEcqAwgd6qLI42lzDaVcNoVy3HOqo40VnH6KFmTve1cm64h8sjg9wYO8qNM8e5NnaMq6cGuXi0i7O9DYx21nCyrYojdYX0l6dzMDeMtjgXavzNybHVJMJwO65qSkQZa9MRF8H5skLGKwo5W17AaH4mAxEBtDpaUGdtRJOrI4PJqVyoquVuewcvDg/wYugkl6vr6fTzp9nBgU5nZ9rNzWnQ0aRGXYVyFSVylWRIVxQlXW45GeKLyBZfSozIIkJEFpOoIEHxzs1U6GtSqL+LFI2dhG3djN/G9XhvUOTC4AD/zeMvTQmeNAeZ0xTtTltqAD0FEQxWp3GsuZDj+0s42lTI0aZSRjr3cbavnUtHDnJzbJi748e5d/4Y98ZPcPfccW6f6uPa0U4u9TdzrruG0y3FnKhJ42hlPP35IXRE2VDroUO2+XZCtDZit0maSAN1uuMjGa8o5mJlEeNl+YxlJDDgY0+zqQYtduYMREUxXlTGvfoWXnUf5NPgUT4dO82TQ8OMle6lNzyODlsHalS3UaQoSa6sKOliK4lbtZC41fNIWT2NzKWTyV86hYQFkwmcN5moVXPJXStBscoGsrcpE7NBAT85SZwl1+AoLsSZg13/DTv+0pzoyb4AY+rCHWlM8KQjO4ju4mi6y5Lo2ZNJb10BQ82VnOxuYrS3nQtHD3FzbIjbZ49w8/QA10b7uHL8IFeOdHF5+AAX+loY66jkZH02J+vSOF6dwkBBKG2RllR76JJtuZNwvW04qqwl3tacgwU5nGlu4GxzPWOVJRxLCOOAvRG1hmoc8PdmNL+Qq9X7uN/Sxouug7w9PMjrgWM8HRrheucAI/mVdLt5s2eHChkya4gTWUrQktk4zf4DlzmTCV48hcSlU8lY+iex838ncP7vhK+aRYrMKjKVpElcL0uwrDjuYqvZLbQMq5WLOdPT+d/Ba0lwpyHIhLoIB/bFutKS7kdbTjht+TEcKM+gr7GCYwfqOXmwhbG+Di6f7OfWmSPcOXeMm6f6uXK8h0tHOrlyrFugvPHDDZxqLWa0KYexlnxGG3IYKoulI8WD+hA7Kn13U+DnSKKbLdXpiYx0dXDp2DDj/Yc53VTP0ewUDnjZU29nRl9SIuf27OV6fSP3Wzt42tnDy0P9vO4b5ln/ce52D3GxooHhkGgaDQzJV5IjRmQp3vOnYjPln+ye8i885k4hbMkMohdOIWzurwQtnCyAFye+hAQZYSKlRfARW4nj6iVYLJuP6eI5nO5s/+/gtad40xxiQXWQBfuiHGlK9Wd/dgRtBQl0VuUy0FzFsY5aTnTWcra/g+unhrgzflKwboz0cXm4k8tHu7h2vJtLA82c6ijleGMuIy1FnDmwl7PddZzpquXE/j0MVhdytKGCo231DLY1MjrYy5WzY1wbP8ulkZOc6+/jdNt+hovz6c1I4cSeKs43NnG9o5PbB7q539HF466DPD80ILDtvbZerlQ0MBKXTrejG1WaGqTKiBCyZAbeMyfhOX0S3nOm4L/gT4Ln/U7w3F8JXfgHkStmESm8gDDhxfgLL8F55UKsls7BaMEM9OZOZaS99b+D15bsRX2APlX+xtTHe9KSFUHLBLyiBHpqixhqreZIaxVH2/cyPtTFzbPHuHfpNHfOH+f6yYMCcJePHuTSYBtjXdUcbSpmqL6Qo/urOT90iIfXL/Hm6SPevnjKq2ePeP30Ic8fPuDZg/vcvnyBmxfPcvvyOLcunOfWxXHuXrnI3UsXuHHmNFdOnODK0WPcHj3FzSNHuNFzkDsHunh4qJ9Hg8e409nH5b3NnEovZCA4mlZbJ0q3KJMovIjQhdMImjuZwNm/ETjnV4HqIub/RuTiCXjTCVs5G79ls3FdMhubhTMxmj8N7dl/oDHjN463tfy38LxpCDSgNmw39XGeNCQHsD83hq7KHHrry+hvqmCgpYrjXc1cPN7H9bEjXJ+IdSOHuHriIBePH+T84AHO9O7n1KEJax9gbKCbUwM9XD4zyvu3r//zQ758+czr5094/fQxb1884c2zh3x8/YxPb1/w8tF9Ht++xfNHD/nw7i2fP7znw9s3vH/5goc3r3P30kVunRrj1tFjPB2/xPNrt7h78jSX9ndyqqiKIwlZ9HgGUK2lTqa0MLHLZxOx8E/C504mYt5vRM7/nYgFk4lYNIXwZdMIXD4TzyUzsVswFZM5U9g183d2TpuE6tRfONba9J/f/P938Je2JB8aAk3YF2lPfZwLjSkBtBUm0rknj849uXRWZtNTV8yRAw2cHepm/EgP40PtXBieiFWHGD9ykNHeVs4OH+L6uVPcuXqRe1cvcuPiGW5eOs/LZ48FMD59/MDTe7e4MX6Kl0/u8/Xze/j66T+/7cvHd9+APn/Cl08fv7/+hS8f3vHhzWtePX7Mq4eP+fDiFZ/ffuTVo2fcv3CZa8dOcqGnl5HKag4Gh1NnqEeekizJYkuIWTaDyAVTiJg3WQAvfMFkQhdOIXjxVHyXTsd50TQs5/2J/szfUZ82iW1TfmXrlJ858l/DS/GlIdiculAb6mOcaEj2pSknmv1FKbTkJ9KUE0NHWToDLZWMHmph9GAzoz0NnD7UyLmBTi6cGOTa2VGe3rvNu1cvePH4AQ9vX+Px7Wvcu3aRO9cv8fDuDV48fcjdK+PcvHCad6+e/Qfa/3Pw5SNfPr7n69cv317+OgHvLV8/vufTu7d8evuaD69f8enDRz6//8i7Fy95cuc+t8Yvcr6vn4HsXOotzCjYqEiqzCpi1iwicvV8wpZMJ2zhFAG4wAV/4LdwCl6Lp+G0aBrm8/4QqE512q9smvIzG//4F0P7/0vlNSf5UBdoTnWwtSBh1MV5UJvsT11aGHWpYdSmBrEvL4L2yjR6G4sYaC5lsLmCI617ONHVzKXTJ3h8/yavXj/m9avH3Lp2lnMjA1w7c4wrZ45w5ngPF073cfPiCDfHR7l7dZxXzx7y5tVz3rx8/u351QvevJxYz3k78fzsMS8e3ePpvZs8f3CTZ/dv8PTedV48uMnz+zd4+fg+715/+/yju3e5eu4so/29HCwpYo+NORmbFIhXliVOVZnYHZuI3iJPrLI04bLC+K+eh9fSabgtm4HDsumYLv4T7Xl/oDrrdzZPn8Sm6ZM4VLeX1y+f8+r7Ehy/eMrzp495+vghr16+EPxz/1IX60mZtzFlAVZUBdtQGbKbinAHKiNd2BvrTV6CGdGJ4rgHiuIXsJasODP2prizN96Tkkh7soL1SQzeRHiYFH6ha3D3l8LHR55wv3X4eokSHjiL7NjZJIeKEe+xhWSnnaTYqZBos5mk3ZtIcVAhwVGNcEsVIkw2kmK9mQpfLerCjKkJMaTcV5tCVzWKXDSo9NFjX4gZ+6NtqQ6zIt5BEy/TbdjqrMVipxjWaqLs3imMtaoQFjtEMN8piqWGGLu1pLDbJYuTrgKOuxSwVZfGYocYpqprMNm+BoudEtiqS2HzfXkYbcLbfBv2Buux1VtLgJUKvuZbMdgmitra5QS6mn+DVxnpSqaTDpkueuS761HooUuRpwHFPqZUhDmTl2hCSvpyfILm4OsrTGaENnvj7alLcGNPnD254RokhygRHS5HQNga3PyF8PRbTYDfSgI8VxDnP5O8sGkk+KwgwlmGOIcNxFsrk2S1ngw7ZbKct5Fiv5lwY3mCdokTbShJju0Gyjx3UuG9k3IPVXIdtpBlu4VydzXq/HRoDDKiLkCfXKcdhJhtwE5TAovtqwTg7DXWYK8hhp3GGsFy0BLHeZcUzjpSOOnK4qArz25taaw0xbBSF8VCXRQbLUkcdsliryODo64sbgaKuOgpYK0hiZW6BP6myngbrkVTaSmbJWfjYbPrG7ziEGfirNWIMt1KsrUqGXbqZDvtosDTjNJgJ3JitEhJmYG33xR8PZeTHrCDkjAzKqPtqYizIztyF4mhW4iJ2EBQqAQePqvx8l1EUPBMwv0WEeu+kky/xeRHzackYR4F4SIkOymSYKVEhuMWstx2EGe7iQADGfy0xQjWlSDGRI5UG2Uy7DYJwGXu3kya9UbyHLdR6qZGhacme720KHVVI9NuOxGmSrhqSeCkIYqThjhOmhI4TkDTFsdNRxJ3PWlc9aRx1JHBVlsGS3UJzHeKYKm2RgDQWkMCOy1pbLWlBQBd9BVw0pXHagKehiReBmtx15NHY/1SNknMwsde7xu8kiAHYo03ELJLnhiz7aQ66pPtZky+jw0lIW7kxemQGP8nPj7T8PNYSaqfCgWBBpRH2rInyYncBAPiIpSJDJUlJEgCby8hfHwWEBE2lSi/+YTZS5HiI05jwVyGm6ZwsGIh5eGypDgok2y3hWTHbURZKxOgJ0WAthiBOhIE6UkSYSJPjPk6km02kWq9iYzdE/C2UuC0nULnHVR4qFPtvYs93roUOGuSZL2FSLP1+Bso4K4rg5uuNB76MngbyuBjJIunkRyuBnI47JLBWl0Ca7U12GmK46AtKViOu+Rw1JHHSU8eVwNFnPQUsNGUwUpDSgDORVsG7fVL2SY1G18Hg2/wSgOsiDOQJVRHjhhLNdKcjchxM6Eg0IGSqADy4syJCVmAt9siAlxFSfNRJT9Qj8ooO2rT3SlJ1yE+VpzQkBUEB4ji6ymKp9tSgj3mE2y/jABLGVL9pTlQuYzxQ/M427aczlw5Cvw2EWutTKSFEjFWSoQZShOkJSKwrq+WGMH6UkRbbCDFQZVsV3XyXXdS6qFGkauqAGKJ+w7qAvTY62tAsdsu9vjqUea1i2TbbQSZrMXHUA5vQ3l8jeTxNZHH20QRTyMFnPRk2K0tib22GG66kgLA7voyuOkr4GqwFhcDRVwNJj4n/x2eNJ4GirjpyqKjtBRV6Tn4O+j/27ZORFiq4Wmug99uU+JcrCkK86SxIJ2WylKK0z0I812Jh/MKgtwlyQzcSWGwAXtiHKjPcKMiS4PkhOWERSwgOEyE4EAJvB1E8DQVxUtPnGBrcfJjV9NZs5KxThHO75dguEqB2qQNJDiuI8REUQAx3HwdfjoShBpIE26kQLLtFgq89SgNMqU21oF9MXY0xdnRFGVJdaAue4J0qAk1pNRLl1xnDfYF6dMYbEy5ly7JNlsE5/UxkMXHQA5/IwX8TdbibayIm74sjtpSuOySwNdQCn8TOXxN5PA2lsfDSFEQ79wE8OSw0pQSrABzZfxN1qO/YQWqMnMJcPwOLyEmDmu3EDScorD0jCIxJoHWmmpGh49w6thxqisiCQpYjJ//YuLCRCmOUWdvrCU18c7sS/OgJEmPuEgxAsOWEBgpRGjUGvy9VuNrLUqQpTiJPqupKZhLV+N0BpsXMbBvFZ17hKjLlSTTfy3B5uvwMV5HoKkSwaaKpDmrUBdhRVOCE1XRDiS6GZPha019shcj9Ulc6ynkQls2p+oT6SsOpD7Olr2h5jSEGdMQbEBdoCEVXjpkOqgKVO1vLIefsSz+Jgr4GE2oSxYXXSk89aUJNJMlxEyWQGM5wXsehhPvy+OqP2FhWaw0JATLx1gJTz3Fb8qTmYev43fb2sTXIO5VzTK3vZglNLGvfZhLl2/x8NEz7t19SGNTGr5BcwkJm0NarBCV8ZrsS7SjPsWTulQPCmN1iQqTxD9sOYFRwoTHrSYqdglRIQtIDVlAVcoyOqpm0F7/M417J1NXOoe9BYuoyBGiOF6ROOcN+BiuJcJqM/WJjlzYn05PYQgBllrobJRjg9hqlMWFMdq2lqIIF24e3c/He2d5de0YD0b2c62/gnPtORzO86U1ypKuKDO6osyp8dMnx3knkZZK+BnLCyzrbqSAh5E8PsaKBJkqEmKmQICpHL7GcngaKuCsL4u9rjSOetICe9toS2KuLoarrizuu6Qx2bgcTfmF+DkafbPtxvB9TLarYq79HsKqhrlw4wlvPnzlwxd4++ELB3ry8A+fSUzUfPLjZaiK0aM62orqOCdqklwpSzQgNU6BiBghAqOWExSzgIjEGcQkTqYg7U+6K5Yy0DiXjobf2Fc1lT2FCynNXEFZphgVqRsoClMnP8CQlnQPbg1W8+hkGyme5sisWsLsKZOZ8usvTJv0G8tmT8Naexujhyd2PD7Cpzd8eXmXj0+u8ubWCDf6qxgqDOJAjBUdUeY0hJiwx3cCoBqxVhvxNVLExUAeT+O1BFsoEWYxoXYFfI2+xUY3fTkcJrKxljR22lI46MgKsq+VhhieE9Y3lMdm6yp2KS7Cz9HwGzxFj1z+pZvIGrs8CttGePLqIxMd5+v3X3j55iNdh3KJiJlBavQSCmPWURikRb6fLiWh5uyNd6Q8yYSshA3ExQkRHL0I38hZBEROIyLmT0pypjFYu4xjLYsFtt1XNZfynJUUJa6hPFWWpnxNDld4M9aWw71TnfDiJuf69qO5ToLf//UPfvrhR3764Qf+969/5dd//I0N0iIcbCz7Bk/w878CX+Dzaz48GOd6Xw0Hs32pCTGm3FeHCm8dKn10KXTTImH3NvxMlPA2XkuI+XqCzRTxMpLBQ/9bVnbWnYAmLajtrDXEBccTpctEgR1gup5Qk7XYbF2NluKE8r7Dk3dI4xfVYLa55dDUd57HLz/z4u1nHj9/z9OX7+nuSScleQpZcfPJiZAkwUOZRGdVCvyNqIp1oCTelNSYDcTFCxMRv5ig6Fn4B88kNHABxenzOVi1jP665bRVL6CiaCGZiavIihalOkOJ4Xpn7o3U8enRRfj0SoBjqL0O+VWLmfTzP/g//+d/+PGH/+F///ZX/vG3vyInspz24gR4c/v/2VQQfPHLB97fv8DZjhKqo3aT5byDfGdVKn0nMrE+RR46JNmqCorqAGNFvAykcdIVx0lHHGcdSex3SbJbUxJLdTHM1dZgrSmG3S5JHHVlCDTdQKChIhZbVqGhsPD/xjx55yx+3uqHdVgZ/SNXuf3wNbfuv+DOgxc8ePKK7q54CrJ/JSdpCunRi4n1kSLZbTtFAWZUxTmSn2BEXJwS0UlixKcuJyltBvEx04j0W0JW7FIaCpbRVirM3jwhUhOXExG6kswYWTrL9Lg+lMWHx5e+qUdAAM4ebsZGfS3iK+bx28//ZNIv/2T6n5OZPW0KmsrSHC6NhJtD8PQavHkosK9AfRPf//KGZ1eO0VkQTrqzGln2WylyUaXYVY1idy0KnTVJtlHB31gR513i2GoIY6clit0ucWw0xbGc6DjU1mC6QwhzNRHsdkngqieLv/F6/PQVsFIRQUNhMd7/rvMUPAr5l0oA/mn1jJy9waXr9xm/fJurNx5w6/ZDOtujqCr5ncKMqeSnLKIoQZbiMG0qw3dTm+xOYao5kfEbCIlbQ3LaMkqKZrKnYAop0XOIDl9ESfpSmgtEKEsVJzJYhKgQGZryzbnSl87bO0fg87vv2ICv73kz3svhTDeCzLeyWWoFssJL2CwngtZGadK8jLnRmgina+BSD9w+CY+vwKu78PGl4DwfXz5gtKOM4hAL0uy2kmKpTIrVRjJtt5Jnr0qm7XaiLDbhOVGyCFo5EWw0RLDcKYT5DmHMd4hiNtEX71iDvaYkXvqKhFooE2y6DtsdYmgpLsHH/nu2VfSv4Gf1CAKzmjhx+hJnzl1h5NQ4Z85f4cLFqxw6EMaBhilU5s+kOG0lValKlIfvonxi6z7elZJkW6KjtxIWs5K8nPk0751D855pZKbOJCBkCbHRSyhNX0JhghAJQTKUJGpztjOF9/dOwad/g/sKX97Dm0d8vdjFvfpgDiVYUOiuQZKjOoVBFrSlu3OuNpyXh1L5erwYzuyDiz1wYxhunoAnV7+f7wvvHl/nRFsxOV67iDRWIMF0LRlWyuTZqZBrr0qK9RaCJgpmLVFs1UUE3Yb5DiFMVVdjqiqE8Q4hTHYIY6spIagEIq03EWS2DiuVNajLL8b73/DWh9bxi24yjgk19PSfZPjoSXp7BxgaPsGp0TMM9YTS0/IL5cXTyE1bQXHMekoC1CkLNBbUYeXxNqREbyY6dgn5eTNo3jud+orppCXPIyB4JUGhi4mNmk96+BrK4zU5ti+K5+c64e2j74r7+k01z27CndN8HWvgRWskl4tcOZ5ux2CWC+f3hvCgI56Xvam8H8zky/ECGK2EsX0w3gZX+uDBOXj35HsmfsWNEx3sibAm2UqZTKv15O7eQKH9FvLtVEgy30yEsRJ+hnI4a4thqyGKxU7h7/CEMVEVxnj7hBLX4LJLlmDT9YJOxVxFWGDb/5Qq64Jq+NUwE72QCqqbezl0sJf2tjZ6ug8zMnKOIwPxNO/7haKCWWSnCpMbvo58L1VK/I3YG+1ATYolxalrSU2ZQ2rmZMqKf2dPyQwS4pcQFCxESPAyQgKWkhaynq4iDx6cbOHrs+vw5cM3eBOJ4vFVuDoEp5v4MpTP645Y7tX4c32PL7frQ3nRFc/7vmQ+DKXz6VgeX0bK4HQVnKmF8Va4PvgN3rMb8PoBvHnAreMdVES5kmS7kyzbreTs3kyW9UbSLDYSY6hEmMF6wozX460/kWXFBTFuQnWm24Ux3S6CyXYRjLeLYKUujqe+vMDmZtuF0VBcjO+/s+16/0r+ppuKtEMWaWX76ezopKP1G7yxscsMDWdRXv4HubmLKMiSJT9amVxPFYq89QXw6tMtqcySJyNtJpHxv5OQ8ju5WbOJjllBYKAIIYErCQsQozzZlPGeEj48uPDNohPoJqz64hZcOwIn6/jSl8mH7njeHojnRVsMz9pieN2dwMf+FD4NpvLxSBafTxZ/A3euHi60weUeuHkE7p+Fh+Pf11mu9NWS5GOHp8F24iy3k26zlXjTdYTpKxKoo0CAjoJAfRFmSoIdFws1UUxVRTBTXYOFIO6JYbpDVLAl5WUwUQ8qYLljDeqKS/4vvLUBVfyol85s4xQ8U2upa2xnf3MrB7sPc/bMZQ4PZFNUNpf8ghWUFyqxN02DimBNSrx1qQi1oTpxNyWpm0hOWEJA2Cx8gmcQFTOf0MgV+AeK4ecjQnLkJoabk3h9+/T37DiRHD7B2yfw4Dyc7+DzQD5vO+N4cyCGd91JfOrN4PPhDL4OpPNlKINPQxl8PJrDl5MlMLYXLu6Hq73f1rV+uD0Cd09/SyI3+jnXXkDAbgO0leRw11ImyXILMcYK+GhL46YujbeGNOGG60izUSHUZB12WhPbT982Ty01JjKvBJZqEjhoywlaxyDTddioiaIxAc/he4ehGFDFTwaZ/KyXjFpwBVnlzTQ3tzHQP8j4+GW6D6VTVy9OeZEE1Xlb6S60pTvDgcoQY3L9jCmLtqQsWZPUeHn8g4Sx91iEV/ACwuMXEBIhRIifDHX5djy5ePg/tZzAshPgJsqNW8f5OtbE+8PZvOlM4GNXAl8OpcJANgzmwEAmn/rTeNeXwvvBdD4fy4PTlTC+Hy4fhItdcOkg3BiCa33fYF5s40J7DsEORmyQFMJogySxZhtJMV9HkK4MLhqSuGpIEagnR6bdNjJtVfE1XIud9rdab6JsmbCrjbokLrvkCTBej7+RIrt3iqKrtJwgt+87yWv9yvlJN5WftBMQssshMKue1vYeTh47wcULl+g6kEdHqy7VZduoTt9Fd44rAwVe1EWZkeWhRZG/IXvjzCiM1SE8eC1OPivwDJ9LZOosQsNXkhWpyfihMr48nYhzb78lh+c34e4YXOmHU42878vnRWcyb7sS+dSTzJe+LL72Z/FlIIv3h9N4czCBlwfjeT0R945k83W0BM5OxLvmbxDHW2C8Cc7ug3MNfD1dzeX2TCJdTFGWEMJwgzgBBusJ1JfDZ5csHloyeGhK4akpSbzZenLs1Yix2oqXoQK7tcSx1JyIgeJYqU1sqMrgZ7gef9MNgprP3UiJnIQAQbz+y1rvIv6qFcePahFM04vFJraKhvY+Tk5c0jt7ns7mYpoqbdlXbEppvA7VsdbsT3JiX7QZhV6aZLmokeWhQbK3ChH+8ngHr8YnejZhSfMJC5SiLM6ce0eb4OlNePsYHl+Eq318PtXIh2OVfBwq5e2hTF50JPK2a8KumXw5nMWnifh3OIOXXfE8aY/gcUckT7vjeNOfxqfjBXydUN+5OjjfwNcz1Xw5Vc6XU2V8Hi3n08kyLrdmEO9hgZaSJFYqErjrSGGnvga7naK4qYvjryuDl7Y4/jpSRBqvJ9R4A8FmSjjoSGM9oTwNCXZrSuFmqEiiuw6Vie5UJHpTGOVCQ2naN3iKXsX8TSue/1UL4Te1YDY7p5NR3MBg3zBXL12ne38NJQnmtBSasC95q6DGa4i3pTPVgcZIU0p8dcny0ibeW5nwEOFvdk2YSUDEEpLDtzJQE82z0x08Pd3N7eOt3O6r5k53AbdaU7nZnMi91hQetSfztDWe153JfOzNFgCcUOGz9ljuNoZyqyGYW82h3O+I5nlvMu+O5PDxRCGfTpbw8WQJb47k8nowk9fD2d/WUC5n6xNI8bFkt6YizpoSuOqIYaMmhM2O1Tiri+CjI4GH1ho8NITx1pbAe5cc4ebKgu0xT9O1RLuqkxdmxb40b3rLYhisTqGjIIqKVD8OVGV/h+eex4/bQ/jbNl/+pRrAGtNYwjNrOHJklOvXbtBWV06Stxb1qep0Z8tRG7OJhngr+vK86El3pDrCnJIQU9JDtxAdO5/4zN+JSZ1OUNgq8hJ1ONeVz71jjQxXp1AR60FphDNVUc5URznQmuTGYL4/Z6vCuNsYy4v2RN50p/KyI57HjWHcqA5gvMKL8b1+XNwXwo39UTw+mMSrwUzeHMnhzdEcXg9l8uRQIo8PJvCsL5Wnvak8OZTGWF0sxWG2BFtsxldfEm89Mdx0RHHTEsZDSxivXbvDUJgAACAASURBVKJ4aK/BQ10IL/U1eGlKk2SvSnGYFfXZfgw1pHOxq4RbfZXc6C5lpDaF9uwAKhLd6azM+AZPwTGVHzZ48NdNnkxS9UPYIJTQ9GqOj5zn2tWbNFblE263jYKgrbSmydIQv5a6WBM6M91oS95NRaghJSEmFESpkZS0kISc/yUxczrRMVIUJRvTV5VIT3kC6QF2mKttQX+LEuaqyuzW3ESIlRZFgTb0ZHpzrTaKhw1RPGmK4P6+YK5UeDOU6URH8m66slzoyfVmuDSYa22JPB+YUFgeb47k82Iwm0eHknnam8Lz/nQedCVyvzOJC40JNCa5kOK8nVATKYIMxQg2kSTMWJIwfXFC9MTw0xXFS1OEcJP15HgbciDTm/G2HF6MdfDpygAfx7t5cayWG515HK+KpSXNm4pYF1pLU74rzz6JH9c689e1jkxV8UTeJJT4vH2cGL3I5Ss3aNiTS9juLcQ4qpAXuIny0C3sjTCmNsqGsiA9ctxUyPVSpzhcm5wkaRLSJ5OcMY/05E3kx1mQHeqC724jDFWVWScmgsyK5awVXsUWaVF0NiniZ6FNU6Ibl6pCubknkNtVAdyqDmSkwJ0CH308jTbjbbYDLzMNIp0M6coP5FF/Hu+Ol/DmaCEvj+TzcjiPV4O5PD2cwe22WO50JHKjI5WDuT5ku+8kwlSSYEMRQk0kiLGQI9FMhngTKRIt15HivJN9Gb7cGK7n/bkDfDrbxJezLXw+08Lbk/t43F/GtY5shipjqEv2ojjcgbqCxO/wHFL4ab0bf5W3ZfIGB2QNA4nNruPIiXEuXrpJS00usW7KRNlvJ8lZg1QnNXLcdSgKMCbPU5tkGyUSbNaT769FVYIumXGyxMWKkhGvTpy/Ka6mumhtUmatmAhiSxcjumgBEksXI7FsEdJCyzHerkR5mD2nigMYz/PgcqEnl8t96Ux0wFJVgblTJzNn6p+smD8fyVXL8LfW4kJLsiDWvRrO4+WRAp4P5HC/K5k77Qncbo3jQXcqj/oKOFkdQ3GAPlHmMoQaiRJsLEGIiSRx5rLkOG2hLc+XW6MHeH/9OF+vDvL5QhdfzzXzZayBt8eqedxXyv1DhVxqy6a7MIKKGFcKQuyozon7Ds8lkx83+/FXRXv+LmfNIlV37MOKaOk+xpnzVzl4IJfChPXEuWwh2k6dSCtVwqy3E++iSbK7BmHWG/A3lSfJWYXGOCvqko1JCd9EapgWYS7GWOmos0VeDqlVKwXwhBfOY9Xc2SybPZPl82ahLClEgIUmLTGOHEt14lSWCyP5nuR7GyInvJh//O9fmfTLLyyYMw+J1StxN9nJiaoIXg5m8+BgKvcPpnF1fxTna4O4XB/OtcZI7nelcr0jgwNZ3qQ4qxJqKk2EuTShplKEWchSFmXBuUN7eH2hn4/jXXw828rns/v5dKaZz2MNvB+p4dWRSh71l3Ozp5izzZl0F4ZTFedGcbgdDQUJ3+F5FfPD9jD+us6Jf8lbM2uzMxts4ojLa2BoeJSBQ5nUFUsS6yWPr/lmvI03422yiUDrrcQ47SDacRvhuzcKYktNuBkNCTYUhOmS6KuPi9kuNDYqsV5cDPHlS1kxbw4Lp09jzpQ/mDn5N6b99gtLZk1Dfa0EcbZatEZY0h1rzaF0V6LttFk8Zzo//fgjk37+F0vnz2OLggwZAdZcbEngXlcytw8kcqEpmr4CVwazd3O63IsrDeHc607nXHMadfFuxNpvJ9hUjnBLORJdVKjP9uXakRY+3hzl8+UBXh2t4e2JOr6caebruRY+jTXwYbSW18eqeNRfxs2eQsaa0gXw9sZPJDxHGgv/bdvAWn7SSeV/VQL4xyYPftvqyRrjaHwSqzncP8KRgWzaakRIChLD2VAeJ931eJtuIsByC5EOKsS5qBDnuJVUl+0U+utSEWZKQaAJUa4mWGirsUlWBnkRIUQWLxSAm/XH70z/fRJ/TvqZqZN+YcZvk1g1bxYGylJEW26n1MeA1kQX0r3NURRbxdzpf7J8/iw2yojhaaZNd1Eod3uzuNWdyvX2RGoSHIlzUKU7yYgT+Y5crQ/jWlsa7XnhJLibE2KhQoSVMjkBenSVR3Jn5ADcPwe3TvDp/AHenmrm05lWvp5rFcS6j2ONvD+1j5dH9/Cov4RbE/Aa077Bi3OjKNSO+vzvylMIb+LvxvlM1k3kZ80o/q4azHKDcALS6zh5+hIjR4s40ChDWoQ4jhM7ELvkCbTaTJjtVqIctxLvspV4p00kOm8m3WMHuX67yPY1J8jeHH3VrWyQEEN21UqEFy1gyawZAoDzp/3J/GlTWDh9KvP+nMKsyb8jvGA22utECTBVoTbOmaY0P6KdTfCy0CLEwYjMIAfackO51J7Jg748bvWkM1AWiO0uZUy3rqEnUZ+j2bYC255tSCbFxw5jVWVcdDeTH2jOcF0qz84fhDunvvW/V3rhQvv3Fq+bT+faeX+6iXenGnhzso6nQxU86Cvhenc+J2oTOZAbzJ5YF3KDrKnL/R7zFMKb+cm4kBnGWcw2TmWJaSIaPnkU1fdy8fJNjhyppKVxGylR8jhOjCvoyAtsGmm3iUj7TSS4biXFfQsp7ptJdttMtq8O+SGO+NtboLZhLQrCqxFftgTRJYtZs3iRIO6JLV6I2JJFrFm0gEXTpwrsO23SLwKY2xVESfYyp7c0jrGmTO4N7uH12H7enG3h+fFq7vcVcftgNueb40n00Ed82QLMtqzhQKwOR7Lsud2ayEhdEu6mOsgJrcBcTZkDhbG8Hu+FOyfg+jBcG4QLB/hyrplP4228P9vO61PNvDxRz4vjNTw7socHh4u5fbCQC61Z9JVF0pjmTXmUEzmBVtTmxH6LefLh+/kf42KmGGawzDITFZ9SQvPbOdA/xqUrNzjcW0FDnTqp4etwMVgraKDjbJUEF4y9TGSIsNtAuo8qOQE7yPTZRmGIEbVJfkS4WrFjnTzSK1YgvHAhEiuWoSCyGmXJNShLiqIovBrRRQtZNGMaE1aeNmkSU379lVl/Tmb7ehmyQ9052ZDDy1P7+Xq1l08Xu3lzqon7/SVcbE2hvzQIS00l/pz0G7ob1lAZqM1QtgtXmpPpKopER0WZhTOno6ooxb70MF6f6Ya7I4K9v6/jHXw5t5/3Z1p4PtLI/f493O4t5fmxGp4MVwni3OX2bK515jK+P5PBsigaUjwpCLYmw9eCmpyY7/AiWvk/ZuX8UzeVxZZZqAfXEFTQQ23nSU6eukBfbyndrQYUxm3F10CaUD0pooykcVIXwkFLmBAbRVI8t5Htv53cwB00pjjSmR9NqIMZKopyyKxaIVCYzKrlbJIWZ4eiHNvkpJFbtZzls2YwZ/LvzPjtV6b+Nkmw/pz0C4tnTWebnCTRbtaC+0GGqjM5WJbCYFUqY00ZXNifRl9JMMaqCvz2r5/RXCtEZagBPZmetGQEEuluhfjq5Uz+5V8snT0DB90dnKjP5cv1Ib5ePcyrkTqeDu/h9ck63o7s4+1IPc+P1vB0qJL7h0u421vEnYOF3OjK43xzGsMVUTSneZEXZE2iuyGlKWHf4MmFNfE/ZuX8qJfBPPNMxB0K2OJbRVBBJ+0HT3C4p5DD7VbsTd5F3G5FAvVE8dq1BjvtlTjqixBoKU+MwwaS3TdRGKrN4ZIADpcl4G9twGYZSdaJrkF6+TLkVq0QwNsuL8smSXGkVixh+ZyZzJ86RZB5J5LIxEXuCRUunj0D6VXL0VBSwE5nJ85GWjgaaOFhqkOSlw0H8kIYqYkj0FpDUO6YqkhSE23BgUxf0nzt0d6qxLwZU5n8yz+ZP+0PlCWESfTazdXuMr6MT8S2Rt6erOPdqX28O13Ph9MNvB2t58XRvTzqK+FRfyn3eou4sD+To3ti6M4NoDrWiQwfU2Kd9ShNCf0Gb21QPT8YFvCjVjLTDdNZZpqOrFMBzmmt7OsYpq0xl6ZKQ6pTVcnxXYeXvgSuRqvxdVlIoMsq/K1kCDWXI8FuHXujTRipjeNgUQzeFnpsmoAntoa1IkKsWyPMFjkpVBXl2CQpgeTyZSyfM5sF0ydsO5lpv01i7p9/CFQnunQhCsKrkF29ApnVy5FavQJ5URGUZaTQ3LiOYDsjugtCqYh2xGS7PB6GSuQHmhLvYYb25vWsXDSfmROh4PdJLJwxFZlVy7DdtZ3ekhg+jjXxYaxZAPDN6D7en2rk45kWXo/s4+lwJY8HKrhzqIiL7ZmM7kvgcFEozamelITtJtphFz5m28mI8v0Gb1dsC7+b5PDTzkj+rhHDIrNMtvlV4ZrZQVFDP2VFSeQnbmBfjiSFkbJ4mcni67SKpMTpJEQvxM9WQjBIk2inRFuGCzcPFtNXGo2PhQ6bZaVYJy7MOjFhNkiIsk1eFlVFeTZLSyGzciUr580VwFs4YzpCC+eyds0K1NdKYqKyDqudG9m5VgaplStYuXABKxbOR3L1KtZKiqOrspn0AHvygm2x1VbCw1CZSEcdzDQ2sWjuLKZM+pWFM/5k7rQ/mTd9KlIrl2G0fSO1iX4CewqUN9rA65P1ghbs3Wg9T49Wcf9wMfd6S7jakc3phkSOVUXTkx9IbbwLuf4WhFqr4aS7kaQQ92/wdkY2Mt8yj9+0ovibehRTjbNQ9NqDSVQ9Xqn1RMcGkxUtRPuehRQnryLcQ5L4iGXkFUwhbeLyooswAZYKpHqqMlQbz7uLPZxpSCVstx7b5GXYKCUmAKckLsZGKQnBWi8mivSqlQgtnM/KBXPZIDlxoUWZ0N2a5AVYUR3tSEOCFyURHvhaGrJJVpxVi+exevFCNkiLo7V5A742BgTb6mGrtYHQ3VqkepvjZ6XNeonVrF44C9Flc1kwc5qgtZNcuRydLRvJDnTlVncJn8eaeDfaKFgvjlTxdLCcB33F3OrJ50p7FuMtqZzeF89wRTj7030oDbMlzdOIEGs13PQ3kRLi9g3ehoC9TDfOYqFJKtMMkvlVP4351nnIuxSh5VtMQJg35WmL6KibSmXRDPLSllGYu4iSsqlk5/xBTMgiYj0UKY8y4dJwAzy5zK3OPPL8rdHZrISKgiybZaRYt2YNCmuEkRdejfTK5axaMJ+lc2axSVaMAFt9isIdaE51p78kmMutqYIC9fWpJl6f7aIi0V8waiG0aA5bZSeGtRVJdjcR3GQ4UBLJ6dokxpvSONeQRlOqNwFW6myVFxIob8HMGUgJrUJ94wbi3W253FrA1/PtvDvdLLDqk4EKHh4u4d6hfG5153Bxfxonq2M5XhXFocIAqmLsyfQxJs5RGy+jzVjulCHK1+47PJ8i/qmVwHyjVJaZZTDHOI0/DVOZa5SChHU6zn6eFCUuprp8MhV7fqWyaiZ7a2ayp3YSReX/ICNlJrlh6zlUHMjzW2Pw5j7PhypoTXXHXncHO9YqMqG0CZtOWFBixXJWL5jPstmzUBBZjreFBil+5hRGOgjiWE9hKI+P1fLpUg9fLnfD43M8vTDAngQffE22E2i5kxgHLVpTPbl7qIQHgzXcOVzFk+Ea7h0u52p7NsPl0XiY7GTp3Jksnj0NoaXzWS8tTqynLdd79woK49cjDTzorxAUwTd78rjTk8v1A1mcrU/iWGUUvQVBNCS5UOBvQqKjJsEW27BRk0Fz/Qr8XUy/wdvqnccvGlH8ph7FCpNUJKyzWGGaxmydaObtikR7txuh7kLkpM6ktHg2ZWWLqaiaRUXNP8kq+DtxMbMojFNh/HAVfH0H758IgnFvji9+Fjrs2rKRjdJSKKwRQlpoBWLLlyKyZDFb5cQItdemItaevYlO1CQ705DiwdHycB4OVfL15lG+3hmBB2f5cnuEp0frOFM7MdAYxonaeK505PDiZCPvLvTy6nwv7y/28uZMB0+Gq7nVVUhljDvaG2UQWTqH+TP+RGL1chK8d3Ord4+gi3jQV8qt7jyudWRxoTmNM/sSOFMfz8m9MRzMC6I8wo4Mbz3indQIMt+IrYY0muuXs1VmYtDH5Bu8TQEVzNBPYrFBMkuMU1hqkICEaTpylmnImiehae2Kj7MQmYnzqCwQoixfioKCxWRkTyY0dCpB3qupy7Hm0eWjghPy9oEge50oCSLW2QSjHVvYoiDLeklRZEVWISW8ku1rZQi116Mjz4+hqnAGK0I5VhXMcEUI402JPD1Wy9fbI3y+c4qP147y5eqgoH16fbSGB4fLuN9fxtPj+3h3sY/Pt07y+tIgby8N8PlKH69Gm7h/uJTje+OJczVig8QKFs38A7k1ywUt3t3DFVxqy+FEVSyX96cy3pzMiaoYDhUE0V8cQkfWRIzbTbSTNv6WW5gYsbVWF8Ng80rUFBaiIrcAX6fv8NYFVvMPgwz+pRbOJNUwZmmEs9ogHgWrVJTs0thuZU+gjxC5KUuoKRZnT74iqXHiBPosxcF8OX526zlUHcOniXGJicfLW3w+38alumhKQ+xxNlBjp5IC6yRE2SAtgbn2DtIC7ekpCmGsIY6RfTEcr4nkUms81zoSuXkom1fnO/l8e4wXF/p5dqqDT+M9fDzbzpvRZp4dr+fJsTpejXXw+cYJvtwe5c2lft5e6uPT5UO8PtXIw4FSLrdl0JDswW6N9WyVWYmVljINGQFcOVAgqAa6cwMF9hyqiKI7L5CGJHfBKg61IcxOHZeJG1i0pTDbLoSB8lJ01i1Cc+1CdirOx9f5+3yeincBf+rEMmVXNFM0I5ilGc5C7XBW6EYgZBLLRjNbwvwkyEoQoTJPlNIsWcK9FbA1lMJMXZIwB01Od++Bzy8FI148vSqYYHrQkUZXmicxjkboqSizQ0kRV3NdajPDuXAgj9uHcrjUmsTRPaH0lQYyWhfJ5bY47g0V8uZqP+9ujHL/5AEeHm3gw/lO3p1p5fXpZl6dbuHZySZejrbx4WIvHy4e5sPFHj5e6ubNWAvPju3lQX+xIPAfKggk09uIUBsNiiIcOFKdwImaRHoLw+jMCaI1y5/OnEDqEt0oCbOlIMiaOFddXAyUsNwhhrnKKow3LcFg/UIM1y9AZ90CNNbOI8D5+30Ym+3jmbzVh9/UQ/ldM4LJamFM2R7IDBU/Zu0MRFbHmkifDSQGy5MUKkZcoATulrKYqUtjpSFPdpA1N0cPAu++Ddo8ugRXDvGqL5djhf5ke5njZqxJjJc9/bWZ3Oov48HgRHOfybmmOE7URHBsbxjD5cGcaYzg/lAeby718P7WaZ5f6OfNpT4+Xxvk1akmQS329FgNDwf3cK+vnMfDe3l2tI6nR6p5OFjGvcMl3D5UIFDdyb2xHC4Mpj7RmepYRw4WBAu6hYHSCAaLw6lL8KA80omODD8qoxzJ8DUjxcOQICsVXHVlsFMTZrfKciy2LMZ08yJMNi5Ed/1C1BTn4+/0fcRsrUUof1Ow568bPfmbaih/3x7M35U9+UXJjT82eaGgY0VaiBqJgSp4WitgZyCLhYYsRtslsNddR226L89unP42nfTy7reL2RcO8LYvi7GSAPaG2VKb5Mvp1nxu9pdw/VA2VzrTBVbtyvNksCKI+/3FvB2t5cHhTG51pfBwdD9fX93l69sHgmmqr48u8Hqsldu9RVzcn8PFlmyud+Zy62CBoKi90JTBcGkEZ+sTGW9K5khFBK0ZvuxP9WJ/qgdNyR505vgxXB5Jd14I+xLcSfY0JthGk73RzuyJdibRzYAQmx34GioQoL8G711COKuvwnbnCixVlmC0eSGaivPYJjULLztdQYT6i6JpID/KWPKDvB0/bPbnh22B/KDszk/rHPhZyZV1eqZkxqiSFq6Bt81mLDUVMFGVxni7BAFW2xmqTefz0xvw6TU8uQbXh2CsgXd9mVyrjeFYVSqjrQVcP1jMrcPFnN2fxrGaGA7k+tCS7sLZ5lg+nNnHx/MtvDpRzuvRGj5cHeDLowvw4ja8uMun26d4NdbO1c4CBsuiObk3ngstEw17pADIufoE+goC6cr2E4CrjnWmOMSG2jhXauJcmfi7Nd2brpwAqqKdSHYzItJelyiHXSR5GBJup4W74Ua8DNcRqC9LtL44kXri+GiJ4qwhhL3aSkw2LUFTfh47JGfhb/fdtmt1XPlpjT4/Sprxg7wtPyh78oOKPz9sdOcnOWtEdmoSE6JMtP9OPCw3YqYmi5GKBA666yiJduLuqR749ALePoR7Y3DpEF9Ha3jbl83DnkIudVVyqbuYpyONvDzVxOXOfNpz/dkTa09Tuhvn29N4e6aFV6ebeD1awcfLBwTjYl/ujPDpzmneXTvOk5P7eXS0lmud+QyWRtBXFMaR8kgGi0MZKg3jSEWY4LJhXbwLHZk+VETYk+dvyd4YZ2rjXamIdKQy0om6OFcqwu1IcNYn2EaLKCc9gm01sNNdh+MuGXwN5QgxlCXGUJqY/6+x8w6L8tza/Tl7SzHJTvZO29Ek9liRItJ7H3od6tCH3nuRLiC9KlXFhqAogthrFKyxa4xGjRobiFgwxmjU37nmxZzr++vb+4+Hl5l3Brhunmetda91rzUSbTLd1Yl3UyXWRRWpaC6ehtMFNXxRynutipE4Dvk5dsjPc0BezQM5gwj+Lsrg7zaZjDOJZb69PZmJBiRKzYnwNiTQSRt/B00ygm042F7Jy4fX4N3vINPc/TIAF3t5c2I1vx9r4+GxjVzb28bg8Q28vnmEF1f2c3FbE3tastjbuoi9K7I4ubmKwRObGZVlcS9t5KVMNvb4Bu9GrvHm7jleXjvMkzNbeNC/lit9dXy/Io8d9Rnsbcykf0UuR1blc6Alk201iUIhva8mmc4lcbRmh9NeHEN7UQwrc8NpypTSkB5EXYqMZrkS62lFop8NaUG2RIt1yfDRJUeiTZ5Eh9IAAyoCDMj10iRZrEaieAFxLguJdNAkRqzP0qL33NbYzheFrxciP8UA+VnWjFMTM05XyjizJMZZZjDf0Y3YEG0CnLQJdNQh0EmHYFddlsR7cGFPuyCFFY6sTJn5Yx9vT7bx8nADo8fbuXe0i9v7W3lxeRdv7pzk0bldHO+oFEKEyz2VHFmTz6nupQyf3c2r6/28ub5rDLynt+H5A17/eprX17/n9c/7uH94DT90lLBrWQa91clsr00RUlB7mzLZXpNET0UcG5ZE01UWx7riGBoXhbAsI4i6VH9qkn0pj/cmK9iBWE8LQp2N8RbJlO+GpPqZkeGty2J/fXJ8NMny1qQkwIAaqRElAfoUBxgIjTB5gSIy/UXkhznQVpU7ZvOMLZ1R+Gw68l/NR/FbLRRnWiCnIgMwjHEWacxxlBAm0cLXTotAJz2CnPWJ8jRmRWE0d89/D29lXvaJIDB8d2Y9f/TX8+xgvUB97h3p5PnZLgGAl9cOcbe/g7MbK7naV8OVngrOdpTy4NRO3j25zbuHV3n76wBv7x4X1J2yBpWX1/p5dXU/b345wv2BDo6sLqCnKpHu8njhurU6mR31qfRUxAvHcXm2lKbMQJZnh1CX4k9+uCvZIfZkhdiS7GuFn60OLsZquBir4mamSoSbHtl++hT66ZDvq0OmlwaLvGRyNCOaokU0x9mzPMmdljQJheFuZPjbUxDuyPLyrPfgOQehMGEuip9N54Mv5jD+m4XIzxIhp+7DOMMoplt64muvgY+1JlJXfYJd9En0E7G1tYin968Cr2DkBm8u7+DF0eU83i/TjTQxdHwjg0c7+PPqXrh7kucXt/Pzzkau72zk7kFZAaeZh8e7eDV4VdDtvRn6kdc3D8OTm2MK+T+e8u7+ed7dOcabX08xeLxLSBo0Z/jRmCoR1PjtiyPYVBLLxtI41uSH05juy9JUb2qTfCiK9iAtwIYkiTFhzpo46M9Ff95ULBfOwtNMBSfDuUgs5pIjWUiuRIs8ydixLZYa05jkyvp8KRuK41iRFUZppJhUHxGZAbYURzizvOx9Ps84YBFyc6xQmKCE4qczUPhsJvKTdJBTcmLcQgmTdexxN1fHx0abEDdjgl2NyAxx5HDXUkF1zm8PeHFxFze31XK+s5jT6wq4vn0pIye7GTrSwe8Xunl5eRvDx9q5sbeFkTO9/HZpJy9/PgjDV+DlI4ETv3v8C29lDuePp2O7WbajZUAOnufPX89w+9B69jRl0Jjmy7JkL9pyglidF0pbThgN6f4CaCUxLiwKtiHex5IIdzMixcYkeJkS4qiHSFsJPaVpWGvNxttcGalImTRPTYqkhtTF2dGW6cOabD9aM2RHXExhtAtliZ5UxHuSF+pIjlRW7HemJNKFNVU573deWDFyhtGMU3VFfrIW8hPmozBJC/k5IsapipmiboG7mToSG22CnQ3xd9QlM8SOo5uX8vr+RV7fPMa1vjq2lMdRmyqzMUH0ryvl2bleho/JeOgK7ny/kjsHW7k/sJYXVw8KO+mtTE4ri+NkIPGWd6P3EJ57PigkF3j1DEbvwcg1/rx7jjuHO+hvy2djqcyTBrAsTSKA1poVxNJUL/LD7YhyN8TDQg07AyVCnAxYHOJMXogzKX72JPhYEeKkR7ijHkVSOxqTxDSnebIyO5CtVdEcaExkT108awtCyY10JjXEmpIEF2qSPKiMdaMyVkxJhAuF4U6s+kvcaFLQxXi/BhTEJcjZZSJnHIqCni/j9QNQNI5gupknnhYaeFtr42evg4/NQmFgwameRl7fPMHID93sb0gnX+qCm5kOTkZaNOdFM3p2Mw9PrOfnPUu5vruBO4faGL20mz9/PcWf9y/w/NaZMU8tU4vyhne/PeCNLIsio3ey3ShrC/htGJ7eRha23B9YL4DXVRbDipwgKuLFlMa4UpskJj/chhBnXRwM52Gl9R2OBrPICrCmIy+SdbmRNKVKaEnzYnmmL83pEhrSvGnIkLA0xZe1i0MZWJnOiTUZHGpKFcDLjnQgLVREWaIbLekSVmb605LmR3m0GwWhTqyseK8MNSrdhaJ0FYqSpSj4NTLevYrxjgUoWmegaJXODFEgtBvTpgAAFdpJREFU3paaeFhq4GGpjqelKjlh9pzpWcaTM3380FlJdZw3YmMtlKZ8g9K0yZQk+PPi3GYe/rCRC72VXNlWw/3+dbz+5Rjv7p/l9d1zPL0ywOgvp8Z22dsXvBm5zusb/bwT+imGx55/8UgA892dH7jfv5a9TRmsypPSnOnHkmhncoKtWBRoiq+NOiK9uVjrK+Fvp8UifzPa0n3ZV5PKwWXp7KqOZVtFJPsaktnfmsna0nCasySsyQtiU1kEAyszObkmh1Nr8tlZl0RrbgA1aZ40pklYmRHAqqwgmtL8KAxzZlGgA8tL3zsMWVblI99mPvCqQsExD0WLVBRlVM1mEYp2OUwX+eNloYGrsRquJvMRmymTFWLP0fYlnNtcTX1qMO6m2qhMn8y///kxKrO/Y3lRAr9f3MLwyU4hK3x9Zx3Dx9t5c/MYb+6c4uWNAR7/uI/7Z/cxevcy/HafP++NhSVv757hrUzoLWtykbVFDV3i7e3j/HpwNX3VCdSneFIe50puiA3xXgZ4WaqgNfdb1OdOxd1Gl/IETzqLwthaEsXe2mS+b0pnYIUsJlzE8fVFnOut4UBbDjtrYzjUlMzupbKwJ43DLbmc31DKuY5iZLlIQTpcHMW6nBBa0wOoifci099OcBwtJe8dhllCMx/aZDPeLA5F3WAUDaPGgHNczHj7fKabeiE2UcNBXwlHg7mIzVTIDXVkZ0MmnWVJBNiZMl9WdPnnP/hwvDwm+locWF/Di/NbGD7ewYvz3fx+qZcX53vGwLt7hicXtnH1YDsn+lYLzcfv7p/j5S/HeTd0gVd3TvH77XPw7B48vg6D53h3+xi39rexriiUnFAbkiWmhDtrCclJzdlfM/nLT5k3/VskDvqsyA2mqzSajqIoeisT2b00hUONKfywJpefttfx445GBlYXsrM6iZ6yODaVxtJRGElXaTy76jPZvyyb/XXpHKhPY7+MG1fGs6EwnIZECbmBdmQH2LCy/P2xNQkpQHGBJwrznVDU8me8TSaK4jIU3cpQtC9gqokHzsbzsdWbg73+HDzMVCmIcKGrMoWSGF8sFyoz/asv+PSj8YxXlMfP3YH7J7fw9touXlzey6MfNvL88g7e3D7GnzcHeH3rOE/ObePGgXZuH+3lxc+HeHphKw9PbeatLDQZucG70Qfw6Brvbp+EwQu8vX2SH7c2UJXkTqiLFhKRMrba01Ga8gWfffwBEz//BNOFM0gPtKA1W9bWFcGm8jh6qhPZUZ9Ef0s63y9LY099hpAl3lmTQkd+BGvzwukqSWBTaTwdhVFsKIyiIz+M3iXRHKhJ4UhzNgPLswQA6xO9WRRoR1agHa2lf4Uq3nEofmeBorKLkFlRcC5E0TEPBds85GzzmWrug4uJCvb683DUn4u7qQo5Ic605cWQJHFCd94sJn/5OZ98oMg/PvyAzBgpb68f4Pn5zYyc3crg0XU8ubiDdw9/5NWtozy7sI2Hxzr4aUcrd49vhcGL/H5lL89PdcL98/D0ztgxfniFV9cOwcNLvLp1mv51lSRJTLHSmoLm3Al89+3ngtLqkw8/QEdpGsm+JixL86CnIoreKln1LV6gbNuq4ukpj6OzKJa1+ZF0LYmhr1JG5WJZWxRLZ3kKHSWpdJak0FuRRF9ZDJsWh9NdFMGemmQONcp2YxrrF4dRHOkmCJFa/zq2Bu6xyKu4CMd2vEM+ilZJKBhGIG8YjZxZClNMfXA1kQWV83ExVsbbUp0UPzsWR3rja2OCyrQpfPnJJ3ygIM+Ezz+lOisaru/i+fkeRn/aw839rdw50snr28f57fIOhgbWcGffcmGe6M1j2+G3ezy90s/w0fVjWhKZt33yC38OXuKPyzvhzgleXDlMV00W1rrz+PaLj5j81adM+vdn/OsfHzF14hf4WGtTEusiOIBtNfHsqE9hW20yfVUJbCyOErhta3YYK3PDWF8US3dFCpsrkuksSWJDWQobKzLZVJlFb+0idtSm0VMSQ2eBlE2FYWyviBeE5xuLoqhPlpAf4kDzkrSxOM/AIw4F01jkLZKFq6JeCAragcjpBCKnF8IUA1fcTFQFSiM2V8XfTpM4HxtiPO2x0V3I9IlfIfvvKyrIM2nCFyzLDeePC12MnN7Mgx/6ONNdw70jHcLuu/n9SmTO4+qOZRztrOWXE3vg5fDYEMNDm8ZsnKx5+dEVXt8+xouz3UKl6/n5HbQVxaM+eyqKcnL8+9NPmPb1F0z84l+ozZxEkCymi3Jm3WIpPZWxbJNx3apEukqiacsLFXhuc3aYoK3rLE2mqzydjeXpbK5Kp7s6k56aHLqrc9hSl01vXRbdFal0FMm6nEJpzw1mXV4oq3NCBfCKI51pKcsYA08ndAkK5onIG0WgoCtFQUOCgro38hoS5DV9maZjh9h0jA+6W6gR4KhDlKcIf3tzdJRnC5KGDxQVUJCXZ/qkCSzLCeXhkZX8cqCVSztaObGhlpEzW7l1pJN9qwo4tCaHC9tqObdzFYOXTwj27ez+rZzevxX+eCR4VwbP8PLnfTw5Kesx28fomV5WFsaiqTSdTz5UZMKnHzP9my+ZM2UiBsrT8bfXIz/SkfbCYDaXxtBTHs+m0jjWLo6gKSeEhqwwludHsbo4gfVlqXSUpdBekszmmkVsbyqgtz6PLTU59NTnsKU2m46ydNqLk1hXECWEKi2pvjSm+FMd70NVggdrat8zDHVJFnLafsireyKv6orcPHvk5tkhN98RORVXJmtY4WYyBp6n5QKCnfQIcTHDyVgbpemT+Ozjj1CUk0dunByqc6dRlSnlTHc5V/sq+Gn7Uq7tX83Q6T4u7l7B2rJYNtfGc3VfKyM/9fPq0a/8PnidA10rGehdD09/gV+P8PbGYZ5e2i1IvrhxgKdn+1hRHI++2ky+/vxjpk34jNmTJ6AxZzK2evMI9zChPMGdtQVBdCwOY3NpLJ1LYlieH0ZDbhgtBbGsLkpmdVESq4sTWVuaxOqieDZUZLCtqZDu2mw2lGfSXZdLT2027cWJtOVF05YbyaqsUFrT/KhP8KI6wUuoiWxuXjK281ScIhin7IjcXBFyM82Rm2GE3Axjxs2yYNw8WyYvMMHFSBUnI2U8LWTDqwwIczXHwUATpamTBbvzt7/9XwE8HZVZxPvZ014ay/DhFu4eXM6Dk908urCXK/vaOLCqgPO9tfwm69B+cU+YETB4aYCtK6rY01YpFHC4vo9n53dy+1Anr2Q27/5pnlw8QENeDHpq3zFz0hcsmPUNWspTsNSdhYPxfIJcDahM9mR5li/LM/1Ymx9Gc1YwVem+1OeGsaIwhZWLU1m+OJE1pcmsK01mvWzE57ICuqpzWLk4gebcaFYtSaS9NJVVixNoyY6iKSuC5oxQWjKCWZbsS2WcJytyw9nX2TgG3mxREOOUbJGbaYzcNH3kpugIVxl4f59nwxQ1Q+HYOhuqIDZVQepsQKynDc5G2syZ/DUff6jI3//+N+Tl5dBTm01pvDfH1hfx7PQGbh1Yy8PTO/n9l2M8OLKWW7sbeCo7ineOwKuHvH3xiCsD21lXnUNHRSo39q/i9dWdXN4mUyjV8sfFPrh/iqGze6lIC8VKdy5GGtOxNpiHu81CJE4a2JvOJ0RsQHWKGzUpHkIn5oocKdXp/pSn+VGTGUJtZiRVqaFUpYVQlxVNbUYkrflxbKjKoLM0kY4lsawsiKRhUQgVCX7UpkhpzomjOTeRZZlRLEsLpTbRT0gMLEsPZH9nwxh4C+ylfKhszUdzTPlohh4fTdflw9nGfDhfxAfKdsxUN8LdXANnIxXcTJQJcjQg2sMaZ2NtZk36mn9++AHjFeSFMMXFXIsdLZlc3FbD2e4aznfXM3K2jz9uHGLoSBs3+qq4v7eBVz/vFcZ7/Dn6gNO7N7KyOIGe+gxOdlZwcFUxfUszudJXz+sft8ODs9z7YQeL4/2x0J2LteE8vOy1CPM2ItRHHycrZWK8TahKEZMb6cCyDAnL0v2oSJZQmezL0oxA6jNDqcsIZemicJbmRFGWEkRtmpT1JWMlx1WLw9hSm0Z3bTorCmKoTw+hLj2UhqwoGjPDqUuTUhrrTVaQAzXJEvauf9+49+DhCLfuDXHr7iC37j7g1p0HY9/fG+LmvSE61rbhZaWJi7EKLsbzkdhoEiY2x91Sj3nTZDbvH3w0XhbjjUfiYMiJzWWc7aniSHuJwAqent3Cq+v7BPCOty3iaEs6j37ogdGb/DH4I/vWL6W1IIHz25Zz93A7JzdUc7KrlqenNsHto0Kc92t/F1nh7ljqKeFsrka4txFJIRZE+Rvh76pFRog1lclupEtF1KX5UJsioSpZQk2yN7UpPlSn+VOVGkhNupTS5ECyIz2E+kV9RhBFMR5UJEnYtiyL7ppMmvNiaMqOpDFLxn8jaM0IoT5FVjDyIDPIXigabVn+XpMs7L//5cuevk14izRwNVXG2WgeYjNVgp2M8LMzRmvuTL7458dCmCJjF66WWhxeX8TZ7krOb2vm5dX9QtHn9Y0D3O9fRW9ZJL2FYdzr7+btyM8MX9jLhuo02pakMnT+AG/un2H0wk4en+zl7Y1DvB38kbdDl7i6eyXJAfbYGqkicdAlLVxETpwtMQHGxPmZUJHkQmWKCxkhY+DVpflSmexDWbwHS2LdWJLoRXGihII4b+L8HAhysRDCrXhfK3zt9EjytaOjLFFIqeVHiKnPCBNsoMzutaQFUZ/oS3G0J+kB9qQH2LGi/L23/V9wE27t3NqFu7kaTkZKOBrOw8VEGX9bHUKcZDKGBUyd8CXj5eWQlxuHwYLZ9DZkcn13I5f3tfP67gVhTsqrG4e4tqeVFen+dGSFcGdgC68Hf+L2kc2sXRJLV30Wz64d5fXwNZ5f6efRiS28ujHA64fXeX3/Emd7WoiT2OBiqU6UjzmFSa4UpbgQE2BKVpiItjwJtZlisiPsqU71ZlmGLyXxHuSHO5Mb4UR+nCf58RLSQ93wdTDG1nABjqYauJgvxEZfiRAXU5ZmBZMttSfRw4xFoS6Up0mpSQ2hOjGA8nhfCqM9SQuwJc7Tgpq/xI3/Cby+zR0CrxVpzUCk9R22urMFxuFrq4ePtT4WmvOZ+c1X/OsfHzBj0jc0FSVwa2ADJ7d3Mjp4ncc3TjNyvpdzPdWURbhTE+vHj7vWMXrnPIPndrN52SI2NxYw+vNRRm+fY+jiIW4fXM/jy/sZvX+F0dvn6d/YTLiXDd72OiRJbShMErM40ZnYQEOKEh1ZsySEukwJeVFOgkBHdnSLo10pDHcgJ9SetGAHEgIcCPewxF2kg8hIBWOt2QJwvnYaxPlaUZkeRGGMmDypA+lSJzLCPAQWVRTpTlGkJ4sjPMgMdiLZ15aa/BQBtv/zn8Db1L4KQ6VJ6M//FtMF07DUmIGtzmwcjZRwMVXBzWwBnlbaOJqo42SqRVtZKhf3b2Bg+ybuXDnFpYE+TvfUcHBVHuXR7hSGienvauLe5X6uD3SxtiqJ9fXZ3Duzk3vnvufK0R1c3t7G3VO7uHflFPfOHqCnpRRvexOcLdRJkIrIi3chM9yGWH9DCpOcaM4LoHaRF7nRtuRFyIy6F0sinSmOdBGqXbKJtolBdsQH2hPgbIqblQZuViq4ms/HxUKNcDdTimO9KI5zpzjGg7xIL0E3mOTvQFawEzIACyPdyZI6kORtSVVu4n8HXvuqFjRnTkRz1kQM5k/GZMF0zDWmY6k5Q8ja2urNxs1MNlbXgOJ4H7YtL2L/hga2rqpjY1MxTUWxVGUE0JQTTEGYC3lhrmxfWcaF/h6O9yynPi+ShoIIzu9cIXxwydGt6+lfXyX0YJzfv4kz21bTWpSEWKSLs9UCUsJEpEVYI/XUJdxHj8UJTlSne1Oc6EJamCVJARbkhNiT4msplAqzAkUk+VsRKbEiSGyOn70+AfZaeFgtwM1qAWKRGmILTRL97UmTupIU4EROqBt5oc6kBNqTFuhETogrWSEuJPlYEu1qQHVO3H8H3urWRhbM+IoF301Ae95k9JSnoa8yFUPVKcIyVZ+Gnc4cPCzUyYl0paM6lZVlyZSnS4nwssLOSBUHY1WiPC2I97Ii2d+RNdU57N3UypaWJRQl+pIX7U5PUx571jfQu2opfcvL6G0sYEtzibCK4gNxNNPAzVomMrIhOsAEbyd1pF76ZIRbkxftSKpURLRMSyc2JNrdBKmjHhGuhkSJTYTai5edHmKRDj52OvjYauNgqoqbpTo+ooXYGijjYa1HsNgKf2czwtzMBNsW72NNoq8tSX52xHlaES4jCE46VOfE/nfgrWysR2XaV6hMmyBE9hpzJ6Ex91s0534rZHD1lCZhrDoV84UzkLoaUpbiS06UmCBXYzSVpjF1wr9Q+e4rbPSU8RLpInUVUZsTR3tdPnU5kaQGO5Ie7EBTfjSrqnJZWb2YNdW5QjxWvSiKpqIU0kM9cDRVx8NGi5gAKwI89BDbqRLsoUd8gDkJQZbCMGh/Z03cRer42mgjEWnjZ6MjFK5cLTWxN1koOAlXKy2cLRZiZ6iMq6ka7mYamGrNwVJfGVcrHVwtdXCz1EJiq4fUyZhIdwtiPCwIdTTET6RBsK0mFbLMEfAfbV5jbQVKk//NvClfoTx9AqrfTUR15kTUZk5kwcwJLJw1EY1ZE9Ga8zXOZmqEu5vhY6uLicY8vvr0E77+/COUZ3zBwrmTMVSbg4u5HgUJwdTnRJIhdRZ25KIwZ6qzwqjOjad+cSr1+fFkh7uTFe5JRUY4qaEeuFho4mGjQai3GWJ7TewtlAiSzTX2NSPSx4QQdwM8bNQQGczF3WIhEmttfKy0EJur42Cihq3xAmyNF2JtvAB7YzXs9ZWw11fGznABRuozMdOZg42xGk7mGjiZaeBuJRMzGQri8VAnIwJstfE0V8PfWp0lqWH/HXjLm+pRnTkJlZmTUJs1mYVzp6ChNLa0lKagozQFXaWp6M6fioX2XGz0VTDTmofqnGl8+ek/mTXlKzSUJqE6ezLzZ07BXE+DzJhAyjNCiZXYESoWkRvjTU1uNFU5cdQWpFC+KJakIDcSAt2EPzQj0g+xtQHe9vqEelvhKNLCxkyFUG8TYgNFRPiaE+ZpjJedFnYmqkjs9AlwMsbXzgAvkQ5iCy2czbVwMtfGwVwbZ0ttHEwWYm0oA3UhIr352Bqr4mSpjdjWALGNAV52xgQ5myN1MsPP1gAPKy08LDUJctClOi/hvwPvj5cvGR4a5OHQoHAdfjjE/1yPHg7x/9fwEI+Gx+4PDQ0yOPhg7H0Ph4Tr0OAgj4aH+W30Gb//9ozRp4959uSxMFz/5YtRXr54Lqzffxvl+dMnjD59wovnz4TXP3n8SBhs/+zpCI9Hhnk88pDRpyOMPns8dn06Mjb4fmR47HVPxh7LhuE/HXnEk/+5ZAPyR4YZeST7OcPCsHzZ9a/fIbzn8QjPnowt2eMnsvsjwzx78oiXL8Y+4+P/AfU+6BAFcHttAAAAAElFTkSuQmCC;" vertex="1" parent="1">
          <mxGeometry x="390" y="228" width="79" height="87" as="geometry" />
        </mxCell>
        <mxCell id="QoQtWdzTlLFSfCSJSzJS-9" value="" style="endArrow=classic;html=1;strokeWidth=4;" edge="1" parent="1">
          <mxGeometry width="50" height="50" relative="1" as="geometry">
            <mxPoint x="240" y="318" as="sourcePoint" />
            <mxPoint x="364" y="283" as="targetPoint" />
            <Array as="points">
              <mxPoint x="240" y="283" />
            </Array>
          </mxGeometry>
        </mxCell>
        <mxCell id="QoQtWdzTlLFSfCSJSzJS-10" value="&lt;b style=&quot;font-size: 18px&quot;&gt;Training set&lt;/b&gt;" style="text;html=1;strokeColor=none;fillColor=none;align=center;verticalAlign=middle;whiteSpace=wrap;rounded=0;shadow=0;" vertex="1" parent="1">
          <mxGeometry x="359.5" y="306" width="140" height="40" as="geometry" />
        </mxCell>
        <mxCell id="QoQtWdzTlLFSfCSJSzJS-14" value="" style="endArrow=classic;html=1;strokeWidth=4;" edge="1" parent="1">
          <mxGeometry width="50" height="50" relative="1" as="geometry">
            <mxPoint x="476" y="280" as="sourcePoint" />
            <mxPoint x="536" y="280" as="targetPoint" />
          </mxGeometry>
        </mxCell>
        <mxCell id="QoQtWdzTlLFSfCSJSzJS-19" value="&lt;span style=&quot;font-family: monospace ; font-size: 0px&quot;&gt;df&lt;/span&gt;" style="text;html=1;strokeColor=none;fillColor=none;align=center;verticalAlign=middle;whiteSpace=wrap;rounded=0;shadow=0;" vertex="1" parent="1">
          <mxGeometry x="590" y="730" width="140" height="40" as="geometry" />
        </mxCell>
        <mxCell id="QoQtWdzTlLFSfCSJSzJS-22" value="&lt;b style=&quot;font-size: 18px&quot;&gt;Bipartite Graph&lt;/b&gt;" style="text;html=1;strokeColor=none;fillColor=none;align=center;verticalAlign=middle;whiteSpace=wrap;rounded=0;shadow=0;" vertex="1" parent="1">
          <mxGeometry x="346" y="610" width="140" height="40" as="geometry" />
        </mxCell>
        <mxCell id="QoQtWdzTlLFSfCSJSzJS-7" value="&lt;b style=&quot;font-size: 18px&quot;&gt;Database&lt;/b&gt;" style="text;html=1;strokeColor=none;fillColor=none;align=center;verticalAlign=middle;whiteSpace=wrap;rounded=0;shadow=0;" vertex="1" parent="1">
          <mxGeometry x="181" y="432.00000000000006" width="140" height="40" as="geometry" />
        </mxCell>
        <mxCell id="QoQtWdzTlLFSfCSJSzJS-38" value="" style="endArrow=classic;html=1;strokeWidth=1;dashed=1;" edge="1" parent="1">
          <mxGeometry width="50" height="50" relative="1" as="geometry">
            <mxPoint x="250" y="470" as="sourcePoint" />
            <mxPoint x="340" y="536.67" as="targetPoint" />
            <Array as="points">
              <mxPoint x="250" y="536.67" />
            </Array>
          </mxGeometry>
        </mxCell>
        <mxCell id="QoQtWdzTlLFSfCSJSzJS-39" value="" style="endArrow=classic;html=1;dashed=1;strokeWidth=1;exitX=0.5;exitY=1;exitDx=0;exitDy=0;" edge="1" parent="1">
          <mxGeometry width="50" height="50" relative="1" as="geometry">
            <mxPoint x="428.5" y="355" as="sourcePoint" />
            <mxPoint x="429" y="459" as="targetPoint" />
          </mxGeometry>
        </mxCell>
        <mxCell id="QoQtWdzTlLFSfCSJSzJS-1" value="" style="shape=image;verticalLabelPosition=bottom;labelBackgroundColor=#ffffff;verticalAlign=top;aspect=fixed;imageAspect=0;image=data:image/png,iVBORw0KGgoAAAANSUhEUgAAAFoAAABgCAYAAACdSWXJAAAgAElEQVR4Aay7dXCV6bavyzl3Wa+1915rddNNI0037hADgjvBIUIgLoS464zPuLu7u7u7JyQhOAQP7u7wnJozfe7et+r+sXfVmlWj3kyJPd/vG2O8Y4x3yt3ro9y7NsjtK/3cGR/gztVB7l0b4sHNYe7fOCVexV/fPMW966L3Bn7/3AD3rg9x//oQD24M8fDmMI9vj/Bk4jSPbo+Kn0++Nsrj26M8mRjl8a1TPLwp+uwpHt0c4tGtU7/bsPjniH7W5PtDPLo5zLO7Y7x4cJaXD87w8sEYz++d5unECI9ujXL/+ggT4wPcuzHKozvneXTnAndvjHH76ggT10a5e2PS7lwTPR/h7nWRDTNx7RS3rw5xa3yAaxf7uDTWxZnhVkYGmxjoqaOtoZiashzevH7Jv/IxpTHHgeEaF7pL7OmvcGawyo3hGnfGGjwYa/TkXLMPZ1u8GWv2YrjWhVPVzgxUONNf4UR/hSOnqlw42+TBpXYfxjv9Ge8M4HK7P+dbvLnY6sPVTn+xXe/yZ7zNi0utQi63ejHe4cO1Ll+utHlzrsmL0VoPxup9ONvoxblGT840eDJa50Z/hQM9JdYMVQk42+TJ6TohI3WejDT40lfpzqmmIM51xnO2I5b++kA6yjzoKPekt8abgTpf+qp96Kv1Y6jBn+F6b3qr3Okoc6WlyIm6XEeKk2xICTcm3OcEngJVzE7sReXIBm7duPyv5MyUzlJPuooFNOfY0F5gT1exE51FjnQVO9JX5kp/hRs9pU50lzrRUWhHR6E9HUUC8dqYZUVrnh0DFa4M17kzUuvOYJULg5Uu9JaJLoar+KIMVk5evMEKZzqLBHSXOHOqRshIvTeD1UI6CkWvu9JX5kNnkZDGbAEl8cYkeCvja7UDT5OtRLsdpSTBkqp0e2qybGgvc6WzwoOuCm9ait1pzHWkKW/SGvIENOULaCl0pq3Enc5yIR3l7rSVuNBY4EJdjhOV6XaUpdqSE2tBjN9JfBxVcDA9hKHmTtQVNnPn9rV/LeieSh96S51ozbMVwxNBF0HuKXWmv9KD/ioh7YU2dBTY0p5vR3u+Le2F9nSVCGjLtxdbd4lg8m6oEMFyoavQkdYcAa35TjTnij7nSkeRCw1Z1hQmWFGabE9TnhPtxa50lrrTVTZpPaUedBS7UhJvSqxQGR/zXbgZbiHQdj+ZYSepzXGitdST9jIP2sqE9NT601/rR2OePWXJZtRl2dFW5EJ7scic6Sh1pbPMjY5SF9pKXGkqFNBa4k5ToSu1WQIq0+3JjbUgzk8PP8ExBMYHMNPejb7qdu7fvfGvBu0nVqwIWkehg1hxk6Dd6a8Jpr8ulJZ8O1pyrGnOtqMx04ambHsxxKYcR+oybKjLsqYpz4FmsaJcaMx1oTrdnrpsAfXZAmrSHSlPsiAn/ARpoSbkJ9hRnWlHY56AjlI3eiq96CwT0lXqTk+5UAwsN9KQSBdFIpyPkB1xUnybt5YI6SjzZLA+mI4yb7GrGKgPoqPUS/y7ajLsqMmwoSrVgvosWzpK3GnOd6Qu04b2UjfaRcDL3GkucKUu24GKVCvyY81IDzMiyksLPwdlhNYKOJkf4dHDiX8t6O4Kb3pKBXQUONBRIHIJIhfhQnuBkLbiANrLAqnLdKAm1Zr6TAFVqSKgQpoLhDTkulKdbkdJginF8WaUpthSne1Cfb47NdlOVGc7UZvtQFmSNblh+kS7KBMtVCMnyoDKdDMa82xpKXSgtdiV1mIPeip96SrzpLnQlepMR8qSrKhKs6K5wImOcqHYTXRXeNFT5U1jvsgtuNFWKvo7hbQUutKYJ4JqTU26BQ3Z9rQXu4svfm2GFT0VQrrKJ8HXZtohsspUK0riTciNMiQt9CQJAbrE+moT4qbG00f3/rWgG3PdqU21pDzOgopEK2rSRAp1pDpNQHmSLZVp9pQnW1OZbENpsiWVGQI6yn3orPCmq8qb1iIXimINyAjWIj/GgJyIkyT6qRPprkxy4AnyYkzJizYjI0ifSDc1Ery1KUkwoSHXjo4SF9qKnGgX+dEKL/prfGkrdqEuV0B1lgMtRW60l4kgOtNSOOlquiuE1OfaU55mQUWqBdWZllRnWVGbbUNznj1tovhR7EhboYDmPAe6ytzoqRDdKR50lrnTUuBIXZatWPH1WXaUJ5mRF3GCrDBdMkJPkB6qR6yXBs+f/ItBFyW6kRlqRqKfEdkR5uTGGJMbbUR+rAnFCebUZAqozbSlOtWM3EhtihMMKE00pCj2JLmResQIj+JmtBUH3U24m8jhZrIbN7O9uJvtJTlAm8J4C0qSrShIMKck2Y6GPHe6RVlBlTei+NBf4y/OCPpqRYHNRWydFW60l7hQn+NAeYolRfEm5EUbkB91kspUMyrTzClKMKUw3oiyJBOq0i2ozrAUK7ku05L6LEtqMkypyzSjp8KF4QZ/usuF9FZ70lvpSU+5G61FDmLfXpNuRVm8MUUxBhTEGFIYa0hGiC4vnz341yq6MMWNvFhr0iPMyI4yJzPckFgfdWK91cgMNyA/xpT8KFMyg7TICTtBkp8GiV4qxHscI8jmEBbHN6J1YDUnFbdirXOIIFddStOEdFQGM9QYKgbaXuJMZ6krvVVe9FR60FnqQnOhEw35zrRXeNNR5iZWWmOuLe3FTrQWO4lVVxhrSlqQHnHeGsQIVYn3UiczRJfMEB3x35Hsp0ZagBrZodrkhuuSE6pFYbQuVSkm1KSb05hjI86Qukud6RUF6gp3usvc6C13p7PYkaZsK+rSLalNt/x9taAq2ZTiOENePLnL18+f/z/25dMn/qv9T67ElIIUJ/LjLUkPNyYlWJ/kIAMiPTQJsFcg1EkJH8vDhLuoE2d2hHw3PUpCHKiMdKEu2Ye23HB6SxIYqE5noCaDvqp0hurzGG0t4nR7GRd667ky1ML14RaujrRzdbiVK4P1nO8sZaQhm6GqdPpLk+jOCac1yZv6MBvKhbpkWB0lVFsOR4UtGMutJUhbiaYAD0YSIziVGEp/XAidge7UW5+kQFuBLE15isz0aQsMYCwjlZvlhTxpbuRhcwsjMVFUmulTZapHo5k+1RrKlCjto+DwdtLl1hK9ZRURm5YQLjuHSKnZREr9hvvymfiukyBu3w5yVJXI01EnVVON8KMK+Bzaj8f+PfgoHeHzhw//bdZTyjLdKU+3pzjJmoJ4cwriLcmNMSUr3ICsMH3SAvQoiDYlzUqJCg8DasMcaYoV0pkVxGB5PKN1mYzWZXOqOoPh2jzOtVdzqa+Z6yNd3L14iodXRnl0eZSH42M8uDTM3bPd3DrVxNWeKi62FHK2Oo2RomiGcoLpTnCl3vMEBVbHiNLah7PCdsz3bCDeWIeh+Ciu5mdwNT+d8axkzob70mmlR5WOEg3WJgyFhnE9p4CntY186OyGoVE+nzrH/bo2huNSaXfxpEH3BIV7d5K+RZaUDVJESy8lZOV8wlf9RtTyn0lYPJXERdPwm/MD7vOnESazkLRdG8g4LEfc/l347diE00ZZbGWlsdywho/v3v33QTcV+/+e7giozbKjNsuG+mxbmvMF4hy3r8KTzkJH0q0UKBK5BT9rqsIENCV50poZSGt2BG358XSWpNFfU8Boaw1nuhq4OtzFxLk+7pwf4NZYNzdGu7k21Ma1gSau9jdwsb2CsZoMRkpjGS6OYjAvlPY4ZyqFmuRYKhOpfQCXo3JYHNxBssCK/pwMzleVca60kDNpifR5CajWU6ZER5kOPx/OZWRzs7iMx7UNvGrt4F1XH697h3nUM8KVqhYGwuOpNTAiffd2IteuJGDVIpznz8Ri9lQc5vyIz+JpRC7+mZiFP+E953vcFvyEn+RcYrZIE7drIyHbN+C+QQbb1Ssxl1yKjRj02/8+6I4Kf9qLBDTm2NJW4Eh7oShiO9FV6kpPpShau9FZ4EiG5SGK3E5Q4mtBebANtTFu1Cf6UJcaTEt+Ij1V+ZxqLme0vYZzPc3cGOsVQ757fpBbo51cHWphfKCJ60MtXOtv4EJrMaerUxirTOBsVTIjxbF0pXhRE2hBkasBmQ4GxNoZEWpjTE1qImc727g80MeFtmbGinLpDfam2uwEFVZGDCQmcLmgiNsV1Tysa+R5cxuvO3p43TXI0+5hJuo7OZecQ6e9E0WKR4jetAbvFfOwmT0V/R//hun0f+A892d8F83Af95UPH77B0IR6FVzCJNdRtgmafw3SuOyeiU2kosxX7EAm7USfHz7PwDdXSnasDiKg0ZXiTPdpS50FDnRUTxprYUOdBc5km2nSKlQj0IPfUoDramKcqM2wZe69HBai1PpqynkVGMJI81lXOpv5fa5Qe5eGuXuhSFuDrcz3t8ohn1jqInLneWcrk3nVEWSWNXnGvM531jIaF0u/aXpdOUk0FeSTW9VMd3VpZwd6OX6hXNiuzw0yPn2FkbLi+iKjaAjJoLThcVcrqjidkMTdxuaeNjQzLOWdl509PKkrY87Va1cTi1g0COAmpP6pB2QI1BqMS5zpmE/4+/Yzfwex9+m4TpvGsLfvkf42z/wWjgNvxW/EiA5Hz/pJXhKL8VRYhFWK+ZhsfQ3bFYv4+O7/wHovqoATlUJxbWM1lwbmnKsxdG4MdOKpmxrWvJs6Cx2IMtWgSJnVQqFJ6iIcKE63pfqBB/qMyPoKM+iv66Qgdo8hhuLuXqqkzsXh7l/9Sx3zvVx41QLVwdF1sqV7mrGGnIZKE+hrzSd4YYyxk/18HTiOm+ePuT1s0e8fHKfl48f8PzBfR7fneDW5fNMjF9g4solbl+aXO+MX2RCBH94mPGBAa4PDHBnZJSb3T3cbmrlflMrjzt7edg1yERNG5czixkOjaPdUUi5ti6JW9cRsOQ3POZOw+3XqbjO/h73X/+B15x/4j3ve3wX/YT/8pl4L/8V4bI5uCybg2DZb1gtnY3lwlnYyyz5n4HuKPGip1hUj7BDBLol14bmXGvx2lHkOJkSlTiSbaNAkYsGJT5mlIUIqIh0py41hJaCFDrLc+iuyqW3tpDR9lqune7l1rkBbp7p5uZIG9eH27g81MaFngbOdlQx1l7N2a56xrqaONPbwcTVS3z98un/9XdfPn/kzfMnvHv5lHcvnvL26QM+vX3O+1fPeP7gLk/uTPDq2VNx1P/07h0f3rzizbMn3Lt+lbuXLnH71Ch3B4d4ceU6z8ZvMNE7yKWSKkYTMun1i6DBzIrsfbuIkFqC/6KZeM/7Ce/ffsB7zj/xnfsDvvOn4rtwGj5LZ+K5bDauS2fjuHgWDotmYrNgBnbzf8ZFZgmi3/3ffUxpLRbSXmBLc67NJOx8GxqyLGjMtqS7xJHeclfa8uzIslai2E2XMn8LyoJtqIz2oD4ziuaCFJrzEmnOT6KzIofhtmouDYj8aSuX++u50t/E+FAH5/taON1ew6WhLm5eOsPda5eZuHqRm5fOcu/GOO/fvubzxw98+vCOh7eucefqeT6+ec63Lx/g22fgG3z7yqe3r3nz7DHvX70QPxf/o9++8OXDO96/esWLh494/egJH1++5uObDzy/+4C75y5wrXeAC7VNDCWm0WhrT77SYeI2ryZUYh5+i2bgO+8nfOZMFYP2nvcjXvOn4bl4BsKls3BeMgvHRTNxWDAd+/nTEcyfjofscj6/f//f5cyU1kI3MejGbKtJwFkW4lXkQtoL7GjNt6U5x5osG2WK3U5Q6mNMWZA15VHuVCcFU5sWSXVyMNXJgTQXJDLQUMxYRy2n2yoZaysXK/hiXyuXR/q4dekMLx7f5+3L5zx7eJdHt6/zaOI6d69d4v7tazx5eI+XTx5y+9IZ7l27xJdP/z+K+faNb58/8vXTf8lhv37my8d34tc+vnvDp7dvxLf1l09f+fTuPa+fPOPRzQlunDnLmbp6Wv39KVBRImH7OsJWL8FfYh4+y37Fc/40RJA95/2I+7yfcFv4M25LZ+GyVAR6OoKFM3BY8DPOC6bjvX4ln/4noDtKPWnLs6YmVRTdTWjItKA5x0qscJF/Fllbri1pVkcpcNWjyNOIUn9LikMElEQKKY3xoSTKi7IYb2ozIugoSaKnNpPOynR6qrMYrC/gTHcjE1fO8/LpQ96/ecnrF4+4eWWEy6d7uHVphGtnBzg/3MWVc4Pcvnqa2+PDPL5zlfdvXvD+zSvx97x785J3r18iXt+84t2rF7x6+oiXj+7x6tEdXj8Rrbd5+fA2Lx/d5sWD22J38vHdaz6+fMmTO3e4eu4MI63NNISHka6qSNSODQTv3kjwwR0E7N+K3461+G+TxmP1YpyX/YLT4uk4r5iN88rZOCyfid2ySXNaNgufLRK8ePyQN69e8ObVS16/fM7LF8948fwpL58/4fnTxzx9/JCnjx/w4f07poiqd+35NtSnmdOcLQqAVtSlmVGfbkZLnjVdJY7ihkC8qTwZjjrkuBlQ4GFErpcJub6W5PnZUBjiQmlcAJXJoaTEqRISsw4HjzV4ee8jPdyEsmhHSsKdyAowJ97rGCGeu/DwlMFRKImdy3qELtvwcd2Ci9NKQnxmkhg6j0ivjYQLDhFlKU+k6X4ijPcQabKXaMvDhJjL431yP346u0gw3U+h23HK/XQp8dQg11GZdBtFsu2VKXLVpMrXgIZgc3LddfE1ksdOYw8GCus4sW8lBgdXYSwviZGCDPryMpyUl8ZQUQaTo7KYHl2HxdENWBzdiLGCLCcPy3DioDQnDstgLL9W/J6tzh7sdPbicOIAlhq70VHcgNbhdRgrb0Nj/xr2rF/EzjVzyUwOF3VYhPSUiMqjooBoS2OmOTUpJtRnmNNW5EBfhSudRQ6E6h8kykKFBBs10uzUSLVXJU2gSYazHrn+DpTEB1OZHEFa/DGi45cicJuD0FWWFH91ikMtKAm1ITfQgATvg4R7bsfPZx1OnpLYOK9C4LICV+cVuNktIVI4nUSvWQTZr8TPYhPBJrsI0d9FhP52Yk13E2+5nzDj3Xipb0B4TIYQ7XWkmO0hx0GeXMERsmwPEm+8h0STfeQ7KFLqokKVUIsi5+PEmh7EVXMbhvLS6B1agbG8BGaK0pgqymCsKIWJojTmR9dgeUwWi+PrsFDZiOnxjRgelUVfcfJC6CnKYHR0HWbHNmB6fD3mKhuwUtmMkdJ6VPdJoLZXAsMj6zi2cwVbJH9hw/JpJEb6MqW3yhdRh0Tki1vybWjJsRIX+UVdlN5yN07VeomDoq/2XvxPHiFIdx9RRvLEmiiQaHmcVMFJsrysKQjzoDIjntwMFaKiZ2LvOA13eyni3ZTI8tYjL8CMrCBDYnwUCPbcg7/PNlyEMtgKliNwnouH8Bd8BIsJsVtGnNtCUvx/IyN4Ponuqwk13UaowU5iLQ8QY32IAIOduKisxfmYDB6qawnW3UKU0W7iTOVINNtLtIEc0YZypFgcFKelufZHybdXIt3yCNHGBxBqbsVSaTXmIrCKqzFXWoO58mqsjq3G9vhabFXXYaW6DrPj68VQ9eRlOHFEUqx4fUVpDJXWYHJ0HcbH1mF6fAPmKpswVJJFbZ8kqnskOHFgNUd3LGeTxCwx6NSYAKaIiu29ZU60FdiLW1SiLktXkYO4jyjavJyq8aC/3BVf9R14qW3D6/hWgvXlibZUI8FWhxQnY7K8HSiNC6GrvobiPG0iwn7GQTADob00Mc7ypAm1yPU3IyfMjNggZQK8d+DrtR5319XY263Axfk3/Lym4euwCB+TdcQJJanL+oX+ymk0pC4h1XUT4Sa7CTfdR6jZfrz1tuNyfA1ux1bjemwNHuqy+GpvIkhvBxGGckQayBFrLEey+T4x7DSrw+TZK1IgOEau/XESzRUI1pfDS3sbArVN2KisE5u92nocNdYj0NyAneZGrNQ2YqK8Dn2F1RjIS2GqtAYz5bWYK8tifmwj5iobsVDZhIXqZgyPrkNjvxQqeyTQ2iuF4ralbJX8hU0rp5MWKwbtQ3+5kxhyZ7FA3MoSZRsiE7W0Bqpc6S11xE9lAz7H1+GtsoUQQyVirLRIsNMhxd2SzEAhNdkpXDxzmrJ8M4J9FuBgswBP2/XEOMmT6q5BfqAFxTFWpEQeIdBfEg/hctxdZBDYSSCwWYSH7VzcjFbgbrCRBJ81dJYu4kr7HMYqV1AdtZl4+z34n9yJ38kd+J/cjlBlDUJlKVyVZXBSlsZDYwOB+nJEmx8m3kqeFOsjZNrJk2p5kCSLfWTbK1Dqrk6OgyoZtsfJc1Ih3fYoQQZ7cNXcgkB9IwLNTThpbcJJezMC7S3YaWzGTEWkapHiZbBVlcVObT02IlPfgrX6VizVNmOhukkMWn2/NCp7JNE5IMPR7cvYITWbraumk/5/QfeWCsQpngi0KPiJ1o4ikcLtxI1Zke/21dyNu+5hBCeOIzTRIdzWiCx/ZyrS4qjKTqejppIH9+5SUeCIr9sq7C2X4+OwiQQ3RdI9tCgItqQ0zpKM6L2EBC3Ew3shHl4yuDnL4GAshb2WDPaqa/AxlyEzciWd5cs53yTFhap1dGVvJdd/J/5GW/HU3kqQ4W48tDfjqrJa7Ku9NTcTbX6IFEc1crxOUhJgSmmACZXBxpR565Dvcpw8dxWKPTVItlEm1eYo5UINyty1SLdVJvikHO6amxGob8BJfSMumptx1t6Kg9YWrFU3iBVso7IGZ811uGhvxFFrIw5am7HV3IK1GPSkH1fbL4naPikMFdahvluCndK//ifozjJPeovt6Sy0o1sMWqRq0UiBKIcWbWJsxMUmCyNjtC3cOGbujaXAh4SwcFoqyhgbGGKkr58zp4Z5+eIlpcUOeHsuwc11EeE+68gOOEZBgD7FoTaURNmQEiyPn89KXL0W4+4niYe3JE42q3DSl8bdQIZo4XLKM3+hrWomvZWL6SpeSUOOJAUx6wi324ar9jactbbhrrsDD53NJNkrUeprQHWYJemehoTaaJPoZkRtnAvna6O53pLCxZoYRkuCaEt2pNjPgEKPE1R4alLurkGRqwYZdspEmuzHS3cbzpobcNbaiLP2FgSam7FSW4+ViiwCjfW4625AqLMBVy2R+jdjo7EZK9VNWKhswFBxLWr7JMQ++uThtShvXyFW9JZVM0gVKbq9REhfsQNdohECkYrzbWjNs6Kj0JaeEieGqj3orPRkq3kUErZ5SNvlI4iroaljmBs37vHw4TPuTNzj7u07vHj+gqxcCzx85+Lr9xvxQWvJD1alNNScsggBRRHWJPjJ4+0phYvXMjFon+Dl+PotxF84hxjvBRTHLqahaBp1Zf9BRf40itPnkJ+8mOx4aZJ9t+NrvANHja0EmRyiMd6BK7UxlIc5YKtxGMWtsuyQXskeWSmMj+6lPNaDJ+c7+Hj/PK+u9nNnsJzrnVmMVUTSGmNDrc8JWvxPUO+jS75AhRizg3jpbRMr1k5TpNjN2ItdyRaEOlsQ6m7CRXsDjpqbsNMQ+eYNmBxfj+nxdRgpr0XjgCTH5FagtU+SY9uWsG/1b+yQ/IW02CCm9FT7MVjhQnexA93F9uK1r9yJgUrRIMzk4EtzmSc/6SXwo1EOEg4lpDeeZeLBK959+sbHL994++4zz5694P7EbVIy9PAJ+pWwoPmkh2ynIECTQn8DCoOtKAqzJC3kKGGB6/AKWIGb3xKEgXPwDZtBUOj35MTNorNgCd2Vs6gt+57i3JnkJi0kI2YFWbFryQ7bQ4q7EmlCHRqTXHlyuo5r7Xk46SogueA3ZvzwPdP+8XdmTv0ByQWzcTXR4s6lYeALfHzFl+e3+fRknJfX+rjanEZHrD2N/nrU+epSKtQmW6BCrPlBfPV24iBSq/omBNpb8dDbgafeVly1N+OkuREH9U1YqW7A9Nh6jJTWYXRUVpwCah6U4vielegekEJz9wqOyM5ll9QvpMYGMmWwPpDROqF4sqhPPF3kIp4u6isTTSo5iqeO6gpd+Ju8O9+rhrLHKY/mUzd4+/Ebn77B6/dfePX2I0+fPeXKhTOkpGsSGjabuOBlpPvLkeKmTLKLKtneBhSEmpEZqkZM8Bb8g5bj5jcPZ99ZuPlOxz/oR4pSf2GwbBkD1XNpKJ9Bcc48MmNXkhYqTV70ZmpS1ejJd+diczqPLnTAu3s0ZsexVWIx//7Xv/CHP/yBP/3xj/ztu7/w49//hvrhXVw51fZf6hHfxNC/fXjO29ujXGxIpSHcigI3dbIdj5PjqEKO4DhJVgr4G+xFoLUdJ+1teJ7YjpvOZuw11mOvtg5btfXiPNv46Dr05deiL78aA8W1aB2SQn2/FIZHZNGRW8Vh2XnsFIMOYMpArZ94fq5LPKrlKE71RFmGSOE9JY70V7hQV+jKd7ttmaHgwUnfAgYu3OPFu288f/2Zpy8/8Ozle+7cucfpoT7S05RJiJlOUshC4rw2EmwjR7jVEdKFuuQHm5ESpEZ44BYCQ1bgFTQfN7+ZOLv+ip/HXPIT59FVuIzOksVUFcwlI3kh0cGrSAxcTXniPkZrXHl6oZ6vz2/CF1Ed5CvZkX6snDODv373F/7X//rf/PGPfxR//R9/+yuKuzZwtjEXPj8Tf/a/EIdPr3l9Y4Sh4kiy3bXFSk61OUKe03FynVTFQTPI8IA4FrhobcZeTRYLFRksj6/G8vhaTJXXYqi0lhNHpNE5IskJeSl0Dkuic1Aaw8OyaO5ayYG1c9kuOWvSR/dVejFQLvjddfzn2lMmGmZ0FbuP+gIX/ixnz6/yrvgk1nBm/AF3H71h4sFLHjx5w8Mnrxi/fIXB7nYK85TJTv0nSeHTifBdSqD9RqJsj5DpoU9esBlxwccJCN5CQLgUwZGLCIv6mQDvX/B3WUxK2CJq0pZRkyFBTvwKQgKX4Ou5ipTQrXQV6nF/NJcvr/7rvMUXGjKjUN29mqVzZyKCO/Wf/8H0aVOZ+8vPGB+T41JtAtw/DS9uw7unIKoGiiqBoseH59wbbaYs3JZIs8ukcbgAACAASURBVAMkmO9HlHOnWyuIs5FkC0WC9PfiqLEJM2VpjBUlMFGWxuTYGgyUZDipII3uEUm0Dq5E+5AEJw5LondYGv2Dq9HYtZKD6xawTfIXUsQblnJP+spEo2CirGMyIIqGGkUDipPmQnWuE3854Mrco0KSizq4cPUu4zfuc+X6PW7decztifuMjQzT39FCfaUmZXlTSY2ZSUrEEtICt5LhoUKerxlFETYkRGjgGbQF72AJomIWkpM5g6yEaQT7zCHYbwF5cUupTJYiJWQ1nm4ShPpsoyXHjDuDKXx6fOH3kunv2vz0iicDJVQFGWF1fDtbJBexWXopezZKonlwM3l+Jjxti4PzFXCtE+6dgac34M0D+DLZHXnz4CpdBZEkCdSINNxDxMldROrLEW+ynyTTw0QZHsBLdyc2KrKYKYi26ZIYKEigd2SVGKzuIWm0D0qidUBCDNnoyFqM5WXR2SvBkY2L2C41exJ0R4mQznxrmrLMxVU80a6wt9yZvnJn8dZcNC5WlefMX5V8mafqS1pZF2cuXufM+auMnb3CxSs3uHx5nOH+Pkb6e+nvMKC95meyk2aTFSNJXthesjxVyfE0pDDUlpQwfXz8duAbtJiMlDnUFs6mLHsaYSG/4uqxmPCgRWTHLCExQIoQ980UxupwvSeNL0/H4dv/bQ58nXQdr+7yZayEG7kC6n21ibU4QrjFUTI9DWiOd+BahT/vumNgJGsS9tUOuDUId07Dywn4+hm+fuDlxHnac0KIMDuIr9YmQnW3EWcgR7LpQeJNDxJ6cjdOahswUxIVoCTRl5dE9/BKdA6tROvQKjQOrkTjwEpOHJYSF6DMlNahtVdiUtESvyu6tUhIW441LdnW4q23aDveW+4kBt1b5ohoMyPy0f+uHs4czVBCshroGRijt/8UHZ19DJ06zdmxs1w6M8bdm7cZ7dOnu+l7slJnkRwpSbrfbjJcj5ItPEFBoAUZwXqE+m0lMGQemWkzqCmaQVHmTIKDFuDivhwPr/mE+M0n1luWoghNztZF8vZ6r9inTur4C7x/NqnMiWG+DufwpFzIpSQL+qOMGUi0ZbzEm8dNIbzujORjfxzfhtNgLB/OlcPlJrjRB0+vwifRsPlnvr17wrmmHNKcVAk/uZ04/e0kGe0i1WwficYHCNaRw0trOwJVWcyPSmOoIM2JI6vEoLUPSqB5YCWqe1egvmcVegdkMDy8GrXdK9i3bp5Y0ZPpXYWfuPkqmnsWje+KQPeJB81dEKV5feUO1BVNgp6tE4VdRBm1zT20trTQUFdPV2c/589d5s7tu7x8/opT/YY0VH9PasocEiJkSBTuINnhCFluOhQFmlMYqUVKxFoiImcRHf8DeZlTyUqZjZ//UtyFqxAKF+HlupxEn/30FXjx4mIbvL4H375MBrQPz+HhZRjvhNESvnTH87LGl7sFztzId+ZepQ+vW0P40B3Bx74YPg+l8O10NpwpgHOlcKURbg/A48vwYgLePYZXE5xvzifJRZ9ww4MkGO8lwVCOWIPdRJ7Yja/6drw0duChuRU7VVmMlGTQPSKBzqFVaB+QRPuAqGq3EuXdK1Dbswqd/VKo7lrBvvXzxaDF6d1wQxhDVe7iCp2otiFqX/WXi1I8199BOyJK7/79eBB/VwlF0SWd3LIGmhoaJkF3DXD5ygSPn77m+bMXtLcZUVj0M8nJS0mN20yy924S7Q6R4axFUZA5pTFaZMXKEBk5He/g74mM/pH4mDl4+65A6C6J0G05fm4bKI034/ZAGV+fi8ZnRa0s0fIGnl6H8S4YyudLRxQfmoN52xjEizp/ntcH8LYtlE89EXzui+LTYAJfRzPhbAFcqIAr9XCtHSaG4OFFeHRpEvj9MYYqUvAy08ZR/QBhBoeI0t9DoNZWPFW34HpsM24qm8X1b0+dbZgfW4vuESl0D0mie1AakZ+e3KysRFUMWhr1PSs5sHHhf4Ieqg9huEYoBtxd4iSu2olSvY4CO5pzLMWN2sJUG/7teAh/PhaGtEkcIelVVFbVUVtTR3fXAOPjE9x/8JSb169RWq5DbuE80tIkyE2VoyBMiWxXJTIc1cjzMaEgXI+UyC0EB8/HUTgTV89f8AuYj4f3ClzcVuPqJEViqCJnW9P4+Pjaf/rlrx/hzUO4OwZnK/nUGcfbxkCxfWgN53NnLF87o/nWE83Xvhg+9cfyeSiJb6NZcK4Ixuvheidc74CbvXBvbNLunOLbtTa6csMwUz2Cys6NuKjtIVxPDh+NjTgcXYetwnocj64jQGcXkYb7cdHYgqGSaN5QGj2F1ejJr0ZbBHufqKC0GsPDa9HZL8khMehfSY0R7QwrfekvcxUfd+grF61OtOXZUploSKrvMaLdlPB1Vuevx0P40/FwZupEYxJSTFZhNfV1DQwODDM+foMzo2MUZKYRFb2X6pp15KTJUpYsT1uKGQ0RJmS6aZLkokNOoB7p4YcIDdyAvfNyTO0W4OQ5F5+ghQg9JfF13UJLgTtvRAHr2+99wS/v4c0jeDION/v4OlrMu/Zo3jUF86kljG8dUdCTAL0JfOuJ4VN3JO+7I/jQF8PXUymTir5cD1fb4ErTZAZyqxdudIkV/vlCFf2FoZiqH2bH6hUYHdhIqN4uQnW24qS8DkvFtdgoyuKluYVEs0OEG+zHTm0TxkfXYqC4Rtyd0TkohdYBKfQOrhand1p7VnFk40J2r5lLRkIoU0SD370lzvSKz6uI3IULtWmmhNgfQOeQFArbVqC4dyPfKfrxx6Mh/LtqGLsd0ojKrKKttYOx02e4cnmc9pZGHC1NcRfspKNZlcKM/ZRGa9CRbE9noi25nprE2iqTKRRV8nRICFDEzXU95o5LcPb/Bd/IOXi4SZITocedU1Xw+oE4IxDlumJ3IQJ/pZ1vI8W864jnVVMY75tD+NIeydeuOL51x/GlO473HRG8aQvhVXswb7sj+TyYCGNZcKEULlXDxWq4VAMXy+FCmdg+jeYzUhyKlZYCu2SWY7B/Pe4a23BV3YiD8gbsRKpWksVRWZYI/T3Emsjjo7cHa7UN6CuuRk9BBtH2W3OfJLoHpNE7uBbtA9KoyK1C+/B6qoszmNJd7sWAqNZRMplpiHLn0jg9jJRXs+K3aSz6ZSZSK1fwl8Me/EnBlz8r+LBcLwKPxCqa23sZGznN5YuXGezrxd9DiL3RHlrLLSlJ1SArUI2SIGNqwswo8tYkyVaBOGsFYuwVCXXch4frehw8luESNAuf0MV4OW2iKsGOF+fbJ0G/fQQPz8N4G59Pl/JxMJdPvWm8aY3mVUMI71vC+dIZx5fOWD53x/GhI4qXTYE8rffhSYMfL1pDeNcbw5eRNDibNwn7Qhlfz+bzdSxLbF9Gs/l4KpORohAcTx5DadtqTI+sxfrYGkxEefNhaeyV1uKsuh67ozJ4qG3AR2sH3jq7cNbeJq5znFQQBUcZtA5KY6C4DocTB/Gy1MDDXANPCw26G8uY0lvpzUC5s7jQLwqEIkWL+oYeprvZuHI2y+bMQmLFSv582FOs6u+OCPlF2Rstt1TySuoYGRpm4tZdbt++R05mLpZa+ylNNKUuTZWikH3keKtTHWpGU7gJJV6apImqZPZKBDpuxdtnOd4hcxCG/IK71wriA5QZq43j5blmnow1c2ewmrudedxtSuJ2TQS3q0J5UBfBk7ownteF8K4lks+dCXxqj+ZtcyhPa/25W+7BRLmQO1VePGoK4FVXFB8Gk/g0nMbn0Qw+jqTzpj+eN31xvOkXWTwvexLpy/HDy0wNA/kNWCuvxkJZCoMjKzE6vBIbRSmcVNZgoyiJ4KgUDkprcFXdgtcJOWw1tmB3Yhu+VgqEO2kR72FMio8Fid5WhDka4OdwkqHWqt9BlznSWWAnTu/6y53FNY7CaH0EBrs5KrearRtl+dM+Z/50wJW/HHBhqrw7cmYRJOXWcubMRSZu3+HenXv0dvXiaqJOspc6dQkHaYrdSKHfQarDTOhOshf76jwvXdI8NAn33Ip/yGxCYn/AL3w27h7SFMQacqMrj7t9JbRnBpLlZ0O2ryUFfhYU+ZvTGGnHQKorVwp9eFgVxKuGMN62RPKyLoBH5Z5cz3fmYq4DlwpdGC/z4k5dAM86InjdF8fbgQTeDibwqjeaJ63BPG0P5VlnpPj9x21R9Gf7EOuki6v2dpzUVuOgKoPNMSlsj0pgf1QCwXFpbJQkcFCUwE5eGpfjG4mxPkq6ryHliW50FYTTVxxFV24oFbHupHiZE2anjZ+tNkMtlUzpq/RlqNyJ7kJ78aEh0Y6wv8oT0fBjVbY7sQHGGOko8qedlvxxhzXf7XXkp8PObDcIJDGvgQsXrnH92k2uX7nC+bHTxPjaEmIjT67fHuqi1lESuJuyEH1aYm2pCjEgS6hBhqc2if57CImYSWjidwRHzcXffzMFsab0FEbSmBaAv/UJNA/uRmPfTvSO7MJMeS8BZqpkexrTn+zCRIk/Tyr9eFLpw/1iNy5nOtAZZUpjhDEt8Ta0JToynOfFnaYIXvbG82YgiTcDyTzvieNxW9gk5M5oHjSFcL8pnDNFART4GRFiIodQcw3umjJ4aK/FW2stnqoil7Eax2OSOB6VxvfkHtLcdOlIdudqSzrPzjTx/EwTt9rzOVUUTkWUI8nuhgRba+JrpU5fYylT+iv9GCx3ojPfVnyYU3zusCGSgbYU+tvSaSoPIzrUnr9sNeOPm035604rfj0i4LBpIJklzZy/eEOcdVw+f55zo8OkhzsTYH6IMOuDpLnvIsfrIEW+JyjyNSTDRZl4m/0kOSmR7qdEbMQqQmK+JyJ6KTGhB0kNNCbCxRw7PRWU5bayWXIl65ctZbvUKvZvEAWcHfiaqtMWJ+BGgScTua7cLXDjZoELvXGWRFoqYa+1F8EJBRx0lQi312Mg348X/al8OJXOm8EUXg0k87o/mVe9iTxpj2KiJpB7jeFcrQqjNsKSSPM9eGrJ4K4hhZeOLEF6mwjRWUeI9npCDXcSZXuUhgx/Ho7W8vliA5/OVPBhrILn/YVcq0+iPzeA8kgBca6G+Fqo42FynM7aYhFoX/pLJo++dVcH09+aSm9bJp1NybTVxdNeG0dedhDf7bDgT1vM+ctmY2bts+KISQDpRU2cPX+dK+M3uXLpEhfHRsmLdyTMfh9B5keIsFQgykKBJNEMiIsWCbYKhOpvI8xkF+lCFfLDlIgIWE1o0DqiA4/hZ6+Nqboyh7dvY5PESqQXzkdm4XzWLl7ImqUL2CK9AjOVA1SG2nAuzZkrSXZcS3PgcpYTxd4nkd8izcwfv2feLzNYNm8u22RWEeV0gnvt8XwaTud1fxKvB1J41hXH/aYw7tYHc7c2iMdtMdxvT6Y7XUi8nTw+2mvx0JBGqLUGT21ZQk9uItnuMJ35wTy80MHnW6f4erWbr5ca+XKukvcjRdxvS+N8WSQ92X4UhzkQ6qCHh4kK7obKtFUXMqVXlHWU2NFTKmSgLYnBnly6G+NpKgmmrTKKgbZMCgsj+U7Ojj/utOPPm435j82GrFVzxzu2lM7+c1y8dJ2rV8a5fe0yjeUuZAbvIsjqAAEmCnifPIi30SFCbY4Sai2PUE/U79tCrJ0CtRHGZAcfJ8J7D+HuKriZaKCtcJCdsmtZu3wp0osWsGruHJb/OpvFs2excv5vHNm6liALDZpDLBmOMmcs3prBBDv8jBRYPn8Wf/nzn/hp6lQWzpnHZhkJ/C3VuVYdysueOB62RXG/NZLxCi8ulwi5VubNrSo/HrbGcKUmkrIQcwJFwzk6svicWI+Hjiy+hlspjbblRn8lH6508eliI58v1PD5fDVfzlXx8XQprwZyudeWwtnySNoy/MkLsSfMQQ9PUxU8TY7RVVfElG7RCVRRc7bYlb6mOLqbE2kt96O9NIC+hiT6mtPIzwvju0NC/rDHme+2mPKPTYYsOOzAcbsY0gsbOX36PONXxpm4MU53sz1laevxs96Ko85eBJp7EOjI4WF0gEDLw/ia7sPXSI44myOUBxhQHHhSfMorwF4dYzVFDm/fwhYpSaQWL2TJr78wb/rPzP5xKjOnfs/07/+BxIJf0diziXhrdep99WkJNqIl0hrL43LM+PF7/viHPzDth3+yYuEClPduJz/YhlsNYdxrDuNOUxhnS33oTDCjP8mU83mOYtD3WuLEeXS2lxG+BnJ46KzHV38TkQ6KNGUHcO90C1/vjvHpYguvBwv5MFrKt/NVfD1fxYfTpbweyhcrehK0L7nBtoQL9PA2U8PbTIXuumJRc9aXTtFsdL4z3bURdNWG0VUVwGBDLANNSbSUBZMa78p3x8L4s7w/f93ryL/ttmX6ISd2GIURnlbNyMgFbt64ya2r43Q1mtJYLIO/w1rMVEVd5B046uzBzWAv/hYHCLLcT7D5PmJsDpMuaiGJAqOrNh7mmqgf2i9W84aVK1g5by5zf57GL1N/YPoP/2CaqKD//d+ZNfV71iyei/7BTYQay5Prqk1dhC1CA2Vkli7g1+k/IbFoDoe2rsfbQotTRYHc74hlojmCqzXBJLjpEmd3hM5IHcbSrblV5c/l6khKIlzxt9DA48Re/I3kSPPRpac0kmcXu+DBRbg1wMdzdbwfq+LL+Vq+Xajliwj0WBkvhwq4K1Z0BO0ZPuQGTYL2MlXBw/gYXbVFTGnKdaE5SzTc6IC4Nl0qpL8mkNGWJAbro2kpdCMn0ZbvNOP5N9VIph4P5q9HvPmPw25s1A8mJreRK1duc29igvGL52itNaWlegNBrmsxOrYOC9WtCA324mWyD3+LfQRb7SXYQo4wq73EOBwhyVmFaMeTCAy0UJLbyTYZKdYtX8aKeXNYOGsG82dMZ870acyd/hPzZ/zMbz9NFStcdslcNPfIil1GdaQDhcH2eJiqITipjI+lDsneVrRn+HKzOYEHXYncbIqgPs6Oo7tkcVbfSFeEJiMpltyuDWYgPxihqbY42DrpHCDH35Sx+hTeXfu9JjIxDOMtcLkRrrby7XIzn8/X8n6sgrejZTzrz+NWcxJnyiNpSfUm3deCMHtdMWQ3AyU6awqZUp9uR0OKCXVpFjRnW9KWY0N3iTv91f70lnuID+KXpgv4i1YCf1OLY7ZOLLM0wlh+IpQT3plUtJ7i5q073Lx2lXOnh2mocaS+ej9B7lswUl6PtdoWfI3l8DGRw99sD6E2+4iw3UuEzR4ibPeR6KJBgocVVifU2b9lAxtWLENmySKkFi4Q+2iZxQsng+KiBUjMm8Pcn39i+j//zs///AfLfpuF6t6NpHpb0JsbKm5bPR4s4u35Wt6ereL5YD73O1K43RLLaLEP9tr7kVjwGy7qG2kLUWckxYb7zVG0pvmhI7+XjRLLsNNRYKgsgU/X++HOKbjVD9e74VIdXy5W8flSHe/P1fJ6tIJXp0p4PljAw84MrtbHi91PbYIbCW6GBFhp4G54FFd9RTpEwbAhw4GGVFPqMyzEym5MF43vigZoXOkU5dZFdlTnuvJn7WT+pBbPL1oxrDKI57hHDpF5rfQOX+b6jVtcuXiRsVND1FQIqSlTIMh5OxbHt+CuvZ0Aox046azHUWcD/ua7iXM+TKLLIaIFB8jy0acw1AX7k2rs2SDL6kWLkVywANnlS9kqtYrdstLsWivFppXLWTVvjthni9zHz//8J9P++Q/mzfoZLfk95IS6crEhjfcXGsQVus+XW3g1UsadjhQuVoVSH+/A3g2S/PLjVMwUN1Dho85wqoAbtdHkhTqza8NaFsyaie4RObpyo/h8tRvujcD1Lr5erOPrhRrenqvmxXA5dzqyuNeVzcuhIh725DBen8CZsggGCoKojXclSWiIr7kKTnryOJ1UoL26gCkJ/prE+SiRGqRFQYwJhbFGlCRZ05DvT1dlKL0VXhRnOfJn3RT+H/Uk/qkeiZRpElqBFYTkddHQfZZz58c5f+YsIwP9NIhKrk2axAp3Izgui6/6erzUZTGVX4WVijQ+pjuIEhwgwfUQye7y1McLqIr1wkb7OHLrZVm7dDFSC+excaWocC7L4a0b2bt+DbJLF7JwxnRm/x4Up/8wCVrkv5fPnY2y3DbiPGzoyo+mNz+WtqwI+gujOF8Vw8XqSGpjHdi5ZoX4ThCN1VYE6tESJ6A8yg1bPRUWz/uNqX//d6QWzcPTRIubbYV8mxjk63iL2Ae/GMjnzUgJ70+X8XaklOeDhTzpzeFuWxq3m5O4XBvHoAh0nAupHkb4Wagi0D2MjeZ+mkpzmCIUHMHeZBue9oeJ9NUmIfgkSWFG5Kd50FyTTH1pCDFRVvxJK4H/rZHCX9WiWWKQwAarDJS9S4nM76SrZ5Th/kG6W5tprHanv8mYbH8FfPXW46oijd0xCYyPLcdKQxoPgy0Eme8kwn4v2X5qDOT5Upfoi6mKPLtk17BFQoJ1S5ewedUK9q5fy4FN69kpI8nqxQtYNGsmc6b9yIwf/ikOiiJ1zv7pB5b+9ot4c6OyZwdmqopYaipjoXEUgZ4qsa6mdGX60Z/jw4nD21g5bzbWqtuoCTelOtIJP2t95Db/n9rOMjrKPFv3nDOQAG0z00YjjTsE4u5WcXd3d3cPcTcChJAASQgJgYSQQAju7g2Nu2sDjf7uqpe59675clZ/mPNhkyqq3lpZT+08/y3P3q8S43/8np/+/g2zJ/2ClbYKqwoSeXiwi8+/DQjgvjnRxdtTG/jztNh6vnDzobXc39XMnZ1NXOyvEw7CdaUx1CR5kxVkS4ybMZEuxgx2r2ZE29IkmstCaa2Kor0+mjU1kbTURNK5Qtz9LmB9UypVpXGMda5jpGMdY+wrmeJRxwKfWgziW8lu2s7WHYc4sHsPGzvWsmZZBAPr3FlfYUpltAYxjvLEeM8nNWYG6RGLSfNTJddXjYoIPTZWBnFqQzm9tVkEOViipyiPtqwMmoul0JWTxkRdBTMNNfTkZJGbPYs5kyYy7ZdxTPzhe0GVNHXcT8yZPAHF+bPRWLwQVakFqEgtQFlqAZpysojUlHE20acsPoC9q/KoTPTGzUSFTD9jmrJ8yQp1w1hThdlTJglf3oQf/sHcXyegI7eIFD8nzm2s/xIrn+nl7akeXp/cwLvTm3h3ppeXxzp5emAtD3a3cnVwKcc6SxgUb4rIC6M0xo1kH3MCbHTwttBgY1sTI4ZaitjamMGWpelsXSaehk1jYFkaW1dkMtSUw5blaTRXZzIjYClfOZQjYZnP3x1KWBzUiG3WejKahuncsp/h7Tvp39BNQ2kI7Q26bFyuRG26KrFeKqTHz6ayYjyF2XNJ9Fciw1ONqggRe1syuDG8ks116QQ7WqCnJI+23GLB9BXlMdVQw1xDHX0FBRTnzmXu5F+ZPv4XZolLt7Onoi8vhZ2uMj4WuviY62OsooDC/LnMnz5ViKOVpRejo6yIj60FK/NiKIv3IshWi2RvI3JCHbExUGfiuJ8R09CMieOY/PNPwmdrykgR6mTJruYi3pwQe7A4uujhj2PdvD3RzZuT3Tw+sIb7u1Zxa7iJ85sq2b8mj/66ZFZmB1EQ5kScm4kAsrNIia6WRkbsaC1lV2MO2+ozGW7MZueyHHatEFsuO5flMtSYwaqKHKb7NvCreyVf2+Qz1raYGQHLMU3rJLC4h+ylm2hdP8Dglm3UFgXQ0bCIgfaZLC1cRG6cAhXFM1je9BNlJVNICZEjK0Cbpal2/Da0kjfnB9nXkke0q6VwGOoryqIrL4uevDyGSgoYiMGXlUZx/lwh5JOaOQ1TDUVCHAwpjHCiKTOArqJIukoSWJEVI1CHlvwi5k2fguy82RiqKeFiJiI73JsEbxvCHQ3JD3OkOtGXSFczlKRms2jWr0jPmcyU8T8zY8J41GUW42NtQWdpGk/3t/PhzCbentok0MWLg2082d/K/d1ibm7kUn8Np7vLOLA6l41VcdSn+JIRYE2ksyE+Fhq4GSvR3bKUEcPNJQwvzWJrbboA9vaGLIaXZbOjMZsdDZlsrUunqSKX750rmOxexTTPKn5wKud7MX2ENGEQ14xHZisVqzaz78Bx1iwLoa9lBgPdP7N6+WSWV89l5YpprGr9mdracRSkzqMszoD15SE8uCSOU0/y28YKCsPdsNHTFOjCQEkRLRkZNKQXo7Z4oQDy/KlTmDd1Mjb66uRHebGmIIL+2ngOr83hxtY6Hu9v5e25LTw+vpnCWH9k5kxDbs5ULDVlCLHVY3lGMEPLMjm4upAzXRVc7K3hdFc5awoiiXEzQV1mNhN//pE5UyajLiuDq7kpK3PieLinjU/nB4RE5eWx9Tzeu1oI5+7uXMat7Q2c7Snj0Jp8dq3IoKM4nJIoJxI8TAiy0cbZUAErLSnamqoZsX15Adtq0uivSmFLVQoD1SlsrUlle3Uqw8LjdJqrl/CdTS7f2Rczx7uWWZ41TPCoZpxbFbO8qtAOqyetbhOHT12ke1U065fNoLP9H6zt+J629kl0rB/P2s7vWL7qG2pLp7Eyz5TDXWW8fX5b0Fc82NFIa24IPlYmmKiroSktLSQtSgvmIz9vLgumTmXe5EmIVKTJi3ShLMmTzsoEBpZmcKitkBenN/NBnFBc2wVPL3LjyAD16cEkepiS4W9FebQTe5qyeLRvLff2dnJvTztPDnZya0czl/vrGWrMxN1Ui+kTxjF36gQWz52Bma4GzQWJPD3WB78P8eLYeu7tbuH60DJuDS/j9nAjV7fUcXJ9CXubs9lcHc+yNB+yAyyIdNDBy0QJc7X56MpPY2VDKSO2NeYzWJlMX2k8fSXxbC6Lp78sgcGyOIbK49lalUpLzRJ+tk7na8scxtkXIeNdg5x/PbPcKphol8dc1yJ8ctvp23GMhtI4SjMX0rR0Aq0tU2htncnadb/Q2jGW6qXfULJkBm2VLtw5vf2LnPblLV4cXE1PaSRRbrZY6+mgqyiPmrQUSlLzkZ07n5lCiwAAIABJREFUW0hg7PRVKYtzZ21xKOsqIgUJ8OaaRE6uK+TFyY1w+xif756Ehxd4f+0gD/e1caytkH0tuZzsLuPmcBN/nO7nzcU9/PHbLt5d2sWrU5t5vL+N3/uXUpXoh4m6tFCYmjZhHPoq8rQWJ/PkcLcQzt3b1SxQxdXBei70VHK2u5Qz3SUcbltCX3Ui9cle5IVYEOeqi4+ZIhbqc9GSmYz6YrFst5QRg3XZDJQlsKkwit7CaHqLY+gvjWWwNJat5fEMVqfSWlPEzw6F/OpUzGz3SmZ7VLDArQxln1pUfSpR9a3APb2VZet3UVqYQF7qQppqp9HeJEPLcnmWr5hKVe0PpKdPIDdZkW1rkvnj4dUvWo3n1/njcBvDdYlkBDrjaKSPoZoy2goyqCxeiIq0FPYiTSoSvdm1KoN9a3M41J7NobYMjrblcrm/ilenN8PdM3y4dYIP1w/z6coe3p/ZzIuD7dzf1SIkFc+Ob+Ld1QN8uHmMPy7t5c8r+/nw+05eHO3m9nATu1bmkuRjhdLCacyY+BPGGvJ0V6fzYH87Z3uqONVZwu99lVzYVMnB1i9UsWdlJn3VYl72IT3AgnBnTTzNZLHSmoOBwlQ0F09EQ3oSTfUljBiszWSgJJae/HA2FkTQVxzFlpJotpb9C+iqVFqrCvjGuVLQdnxnkcMPFrlMs8tH1qMMncBqdEOq0Y2oI6hgLbn5IRTnSrGqYS5dLcq0NGpSWiBNcuwcQr0XkhdrxqmhJvjz+RdhzNPL/Hl8Pcdbs6lP9CPQzlRIxTXlZRBpqBDqYU9TfhT71uRydlMJR9cXcKKrgCtbSrk6WM6dvU28+X0372+f5tm5nbw8s5UPv23n3dl+/jixiadHunlyZAOvz2/n0+0TfBSA3sOfl/fy/tIwL493cW/3SgHA5uwgXI2UMVaVIsbTkl2ri7g0sIwdQnCQyeG1Bexfk89AfQobymLZUBbD0lRvkv1MCXJQx91UGmut2RgpThF00bqyE9GWnUhTfREjxFy8tSiCTXkh9BeEMlgUxraiCLaVRDNUFs828cRreQ6/2Gbzo8MSfrRfws82OUy2y2OWQx5SrktY7F3KIp8KDMNqSUr1pSxPSdDddTTJs6JKnfRodQKcFPGzUaYy2YtbJ4bEmtkv2rdHF/l0vo9rG4vZVBxFmr8jtoba2BjqkB7uw+CqYq5uX86t4Xp+6y1h/5pM9q3O5HRPAVe3lvLo2Bre3jjM62vHuHukj6fHe3l/YRtvzm7m9Zk+Xp7q5emxTfxxZpB3l3bz7uIu3v0+zPtLQ7w6uZGnh9u5K07TN5azpTae0ignckPsWVcWx4muCg61FbNzRQ4DDakMNKSztT6NjiLxvEwQy9L9yQ2xJdheHXfjRTjpz8FSbSomChMRyU5AX24iunLjaa4vZMRgRRK9uYH05gSxtSCE4aJQhovC2V4cybAAdhyri9MZpx/GDyZJfG+bzw82ufxklc04szQmmaUyyTqTSXZ5LHAtJDjcm4psERXZalTmyrEkSYlIT1U8LcXDjzq0lyfw7MbpL0CLlUfiEuTFAZ5srxZGHUqj3IjysKcuJ4Hjfcu5u7+VB/tWcGOohtMbCjjWmcvhthwOrc3iYn8hj46s4u21/by5cZLnF3bz7soBPlzew4vj3Tw93MGTw5082LuG+3vW8PhgJ88Od/HkUDsP97Zyd1czt7Yv50JvFUfaCtixLFXQB64viWJvSx6H1ixhf0suu5tyWFMQxbqiGAaqkwWQa5O8KI12JtnLkDA7BfxNF+CuPxNbjSmYK/+KieJE9OQmoiP7L6A3lyexKS+Y3twgBpaEMlQYyvbCUIYLQ9ghBr04grX58Xyt6i30DSWNkhljmctYk3S+1ovjn3qx/GSUxASLDOY45eEX6suKInuKko2J8VUn2FkVb2sV3M0UifcSsX11MW+e3vgC9LMbcOuEIKl9sb2SQ42JrMkKprchRxifuLlnJdd3NPD7YDUH27IYWhbH0c5coSr3x1Fx+lsrfAHPL+3l8+v7fH7zEN484NPd0zw/sYEb21fwW18Dl/sbuD7UyK0dTdzfvYrT68s5snoJFzZWcH5jOXuas+irTqK/Kp6+yjg2VcaxY3k6B1fnM1CXTmdxDPnhjhRGuNBdEsuq7BCKI5xI9zMhyUWVZMfFRFkvwM94Li56M7BUm4xIcSLai8ejtuBnltcUMGJrZapAFf35oWzJD2UgP4RthSEMFYQwVBjC9qJw2rMjGavgwkgVf0ZqRTLSOJORximM1I1ktHYY/zSIY4plBgtc8vGKcGdllR0VmdbE+OjjY62Op7kS3hZKFEU7cmF7G4iFMe9ewsOLcGUPn0928Gq4iosdRRzprOXsliZuiUOpHU2c6a3iUMcS+uvjGGiI4dpQNR9+6+XduY28PNbK6zM9vL95hM9iudjLe3x+dov314/y/OQmfttcz95V+ZzprhA4WJwYHW0v5Gx3CUP1yexuyhBAXp0XSkt2MF0lMawriqKzOJLBumS21qfSkh2C+K8sN1QMtBMVcW5CyBjrqk+imxYZzsrkO8mRZi9DiNlCPA3nYKc5HSOFSWgvGo/2wnE01xYwYqAsif68UHpzg+nPCxGAHiwIEWhkUMzZBeG0p4fw1XxTJOTcGKXkx0jNcEaKEr+ArROBhGogY7Sj+NY0BdtAW6oKzChIsiTSUxcvC2U8zBSJ9TCgpz6DF1ePw6dXX6S4t0/Ab0N8Or6WVzvruDfcym9bW7i+azUvTm0SvPJsXx0baxJoLwplS2MiN3cv5825fl6d2sDrU2v4eGOPoGb6ePs4H+6e5Y9L+3l8rJeHh9ZxcXMdu1fmsG9VHgdb89i/KpsDLTkcWp1Db0UMG8tj2FKTSHNmIE0ZAawviWZdcRSr88JpWxJJV3E0zZkBQkqdFWRPQaQzKX4WBDtoEOWoSqqbGtmuKixxURIWAISaL8RTNA8H7VmYKk5Gb/FERPKTWbus7P8CHcLG7EA25wQzkBvEYG4gA3liC2IwP5T2tCDGzjJAYp4pEguskJB3ZZR2BH8zSuFvhgmM1AhmpLIXYzSDMPU0Jz1Oh2gfPQIc1PAUKystlcgLt+V4/0o+vrwHn17D40vw+zCc6ub9gRW8PtTKnT3tXN7WxOPjPXy8sZ9np7dwpLOCgYZkhpansm1FKmf66ngkjiLO9vLmdDvvxArRZ9f4/OgiH24d581v23lyZD13djVzpquMbQ1pbKlOYqg+hX0rs9i9IoPhhmR6SiJYXxhOX0UcLTmhLE8PZm1+OK254seB1Cf5UJfoRXmMC6m+loQ46BPvbU6UuwER9sqkuCqT7qpEpqsKhR5q5DorEWmxCB+jebjqzcVBay62mvNxEcmycW0jI7aUJdKXE8SGDD96M/0YyPFna64/A2LL9mMwx5+OZG++mbAYiUkKSEzXRmKeGSNlnRmpHsRI/QTBRqkHMlbNDyM3MyL8vhx+XpbKiM3fTp3aNF9uHN7yRbn/7gXcPg6nu/h4cAWvd9bw4mgnN3at5s7uZt5eFIdiR7i1v5t9rQWcWPflz33PqizObGni6ZntfLy2n3diChHrnV/d5fOLW7y7dpCPV3by9vwA14eWCweZuM21qSxW4N9t9SkM1iayuSKarqJwOpaE0lkUQXNOMHXJvtQmelMV5055rCuF4Q4kepoQ5qCLj4U6TiJFQhx1iXPVJM1VlRwPVdJc5ElzVqTQU50CD1WS7eWJEW8+sFbCx1QJL1MVgu11GOxuYcSW0ng2Z/uzId2L3jRP+jO9Gcj2/WLix5letMe58c33k5H8YSYS46UZM0UVybkmjJR1YaRGKCMNkhipH4eEWiB6tiKCXMWHnzLeVmp4W6sR5abH+ppUnl87BbyHVw8Eueyno6t4s6uSF2La2NvGvf1tvD7dw/sru3l9cTtXtq3kxLoSft9cydn1hZzuLBWapZ/FE1YPzvHx+i4+3zsBbx7z8ck1wZs/XP6S9V0damLHsjQ2lESyoTSKntJoeiviBMC7iiIQd7wbU31YmuzNMnFIGu1KZoAVaX6mpPqaEOmsj5OhPNZa0lhpLsLBQJYIR3Uy3VXJdVch01WJZEd5Up2UKPHVErYqFPkZkudrSpK7Cb7mmnibi6W92vSvW8mIPvEOuwwfulPc2JDkwsYUN/rSPdmS6SXY5gwv2hI8+PrXxUj+OJPR389g7E8LGD1ZhVHzLRil6MVI7Uj+ph/HSPVglPV0BbpwM1XCz1ZdOAxTAyzZtb6Bt8/vwec3cP8c709182pvA4+3lvB0TxP39rfz5PA6Pl7eCbcP8fhoF79trhVqvbd3NHJruJEnx3r5IJ4AeP+CD7eP8kGscX55B8Qi9dcPhY4It48IGeDNnS0M1idQHevMshQv1uQE0pYbTGeh2JMjaE73oy7Rleo4Z8qjXYRCfbyHiCgXdUHFL1Kcjdr8KZgozcNJbxFmanPwN5Miw02eTFdlMlzE0l4lCv11aYixY2WaD/VJvmQH2BFsrY2LoSJ+FuqE2el8AXpDXgTrk91pj3WgI8aezngnNiS7syndkz6xl6d7sSbZl68XWzBqmiqjf5rD6H9OR/LHeUhM12LUIjtGKngwUtmPv6kEIKOmi4tIAQ8zVfzttPG10WRJpBOntq3lo3js7Nk1Xhzp4tKGEk615XG0JUuo6T46uJ7HBzt4e6aHt+f7uLOrievDK3l+qo8/zvbz7uo+eHrlS5Lz6TWfHpz7EmmIB37E01risYtHv8GD07y5coCLA8vYWB5FdYwTDQmuglauJSuAZal+1Cd6UBXnJNQmEj1FhDsbEGCnTai9NpFOOrgbK6ErNxfVBdMwU52Pi+5CgkwWkeKixJIAbWqjLWlOdqUlzZ36BGfyQqxJD7QgPcCSOHcj/K008LXQIMhai0gHPbZ2tTCiNcWPlRE2NAZZ0BRmTUu0I2tjXVif5EpPqjubUj1YneglxNEjVXwZNU/EKDFf/7IQySlirzZjpLQ9o6QdGaXkhYy6Pq4iRdzNVPGx1sDTUoWCKEfODa3h84MLvLmwnTMdhazNC6Y81ov6ZD9O99bz/PgGHh1o4e7uFdze1cTN4UYeHOwQUuWPt45/AfXPx/8atfjAp6dX+fzod3j9QBjMFFL65zfgye+8vXqIy1tXsL0xhTV5gSxNcacmwYX6JE8aUzypjHEgxdeIAGtVrLWkMNeSErg4L8CGNB8r4ty/UIePuTIRNhoUB1nQGGfP0gRnWjJ92FIZwXBdNFsqIlia4kWCnwmx3oZkBJiS6mVCtKMu4Xa6BFtrCR49IBai10Y4UeYpotTTiHJfM2qDrGiKsGdNjCOd8Q70JDjTmujFty6lSIrHK6xyGGUQxSg1D0YrOzNazZPR2qGMFsUhaZKKnL4lbsbKuJoo426qjJupPMWxTlzasZaP1w9zd1crG4siiHU2wVJTAXFVrrc+nTdnNnJnXzO/b63hymA9d/et4Y8L2/l45wTv7pwWxonfP7sJvBNqJJ+eXePTHfG84E0QfwHikTjxlMCza7y/doBr21YwtDSF9iXBNKZ6UBBmQ0mkLeXRNqT6ioTfy0RtHgYK07HXXUhhkDXrskNZlRZAfZwzyxOdWZbsRkOCC3UJztQniWnGlfVFIRxYlcSh5mSGauJoSPYkzt+IWF9DsgLNyQu0JNPHjARXESG22gTb6rCls5kReV5mpNtqkmarTbajLoXuIqr9LVgeYs3qSFvWxzvSnOjNV/5NgohmtFsdkq51jLErYox5OqNFCYw2SkbSMg9J2xIURLa4GyvjaCiPo4EMziJpyuJcuDTUzKPDPexcnk2OnzXGiouZM+kX5OfNpL04mvcX+ri1ZxVnN5VyaXMlj4508fHGIT7fPcWfN4/z9Pwu3tw+84U6Pr7iw/2zfLiyF55ehbeP4M9/Af34dz5c3cuVwaVsqoimSaxMSnQjO8CMDD9DYXOMg4E0BspzMdNYhJ+lEjm+hrRn+LKjOonh2gT6y0LpKw1heGkCg0sTacrxZnm6O6uyvOitCGffymSOtGZyqDmTDSXhVCW7UhhtR1GYLQVBNmT6WBDrIsLPUhN/Sy36O5oZkeBoSISJMhHGysSZq5Jup02huxG1AZasCrelI96Z5jgPvnWq4GvnGsY6lCBpms5ovXgkDRMZbZzKaNN0JMyykDTPRd7QSqAOW21xJWshjvqLKYlx5kSXuN1TSF6wI6aqMsydNJ6fvvsWTQVpBldk8+f5Xu7ta+FSfxXXBmt4dqyLTzcO8eHGEV5f3sOjM9u4e2oHbx9eEeYC34lfu7KLT3fP8FlMGW+fgPjn/dO8v7yLi321gt65IsaeonBrkr0MCLVXwVJzHrKzJqIkNQNva21qEt3pzA9gc1EYQ1Vx7G5MYu+KZHavTOXIugKObyhj69JEtlaFs6shli01cfRXJrC/KYsz64o40prD1upY1uUHsizRg6JQO1I9TQmz08XdWBUvUzU2t61khJ9ImRCRAqGGCsSYKpNup0WxpwkrQu3ojHNjc5oPXal+/F2UxFjDRMbohDJa2YfR2hGMNkljtHjkwiQdSYN4JPTjUdAxxUFXFgv1BVioz8PJUFZo72xbmsay9GBsNJWYPXEc338zlm++GoOLtSnntqzgjxNfij1vz/YIId6bM718unWE9zcO8ehYD+eGVnOot5nH53by8dZR3olHjR+e4e31w7y7e/5L9CE+DO+dQBzind1YSUOKuBstIspZEx9zOcw1ZrNw+jim/vwD0vOmEuZiIHB4R0EoHfmh9JbHMFQbx56GeE60ZXNxSy2nN1YLgvO+0kh6xCuXl4SxNjdEyBq31qQwVJ3MYEUsm0uiWJcbTGOiB3mB1kTa6+FtokqApQZb1jUzoj47kfK4QCriAqhLDqEpO4b2knQ21xWwY2UF+1prGVxexbdKHoyWskVykS2j1fwZY5HJaPtiRtsUMtokE0m9OCR0opHTNsJGZxGmanMxV5uLq6EcZTFurCuJI8nTBtX5cwQRzHdfjeabr8eQkxDKy9O9fLqyjVdnB3h8pIM3l7bz8cY+Plzfz7tr+3h4ZAO/b18rlEHfXt7D46OdPDvdz6f7Z/n87Dqf/7jP5/tn4eZhuH9GKIfuX51PVqCJsBDQyWA++rKTmT7+H/zj27FMGfcPLDQXkB1kTnOWDx2FIXSVRNJTHs3Wmlj2NiYxVB3PttpkdjRm0FsSzeqMAFZnBdNVGM26JRF05IXSnhNEW5Y/PUtC2VIcRW9JFG25QRSH2QseLfZmf0tN+jtWMuJLm+N//vfew8d8K2XE6Bl6jJZ3RdI4FUmbPGFSS9Isl1FmOYwySkdSPwE5TRF2utKY/8ujXQzkhKrXsvQQ/CwNkZk5jQnf/4Nvxkjywz++o7UqFy5vFWoXj49vEOjj5cWdfH54ljeXd/Hi1Ebu7mnl3OYVPDm1DR6e5dWpjbw5teHL5Ks4eXl9n3e3T/BBnI4/vMDLC3vZUJ2Cr6UCOrKTkJ41jmkTvuf7b7/i+2+/xkhlPik+BqxId2dTWTg9peH0lEXRVxFNb2kE3UURrM0NY3VWEN2FEWwqiWZtXhhr8iNpL46nrSCedYVxwhfQsySE9kw/2rP8WSfebpkVRG2cG6leZgRYaRFgoUF/e9NfA/rOg8d8vdAESWk7xooSGW2eyWi9aCQ1Q5DQjmGUKJ1RYq/Wj0NOwxAHXRmstBYJoZO7sSIpPtak+ztiraXMnEkT+P6br/lqtCTTf51Af1MhXOzj9dl+np7u4/K2Bh4c28SHmwd4frKH+3uahaTlSGcND8/tgVd3eHC8nxdH18PD81+G51/c4N3Nw7y/MCAIEx8d20JNahDKCycz4YevmfLL90z86Z/8/euvWDB9IgG2mpTF2NOW70d/VTT9VXH0VcayqSRSSGpWpAeyLC1AKDZ1FIgzy3jWF8fSXhBDR3E8nSUprC9Lobcqhb7yWNblBrIyxYMVyR6sSPKiUpwA+VsT6ahPoJUGvW0r/iLQ9x/yraw1EvrRSOjHIqkdzmgVfyRV/BDXOCR0IpEQpSEhSkVWU4Sjniy2OtLY6S/G21yFaFczAmxN0JaVYtKP3/P1mNGMHS3JghmTGVyRxesT7bw41cfVXe2c6qniweFunpzq5crQUq4M1HCur4Z97dU8/O2wEDef37WRe8cG4PnVL7PcTy7y9vdh3p7sEQSO9/avIz/cjWnjf2SMxCgm/PgPpk74kfE//AMN6VkE2mtTEu1Ae34Am8oi6a2Ipac0io78EJan+1OX4kdjRgCrcsNYVxTHuuJEOksS6SpNpLs8hQ0VGXRXpNNTnUZPRTLtBVE0pflTF+tCaZgteQHWpHqZE+MsIsROm80df9Gjbz98yje6YV8A1QxBUtWP0YqeSCr7IKkWhKRmKJK68UgaJAsc7agvh62ODI6G4hU4aoQ4GuNoqCkICMVCwrGSkoyRlERm3nT6GlK5t3sZN3Y1c7SrhlM9DTw7tVko/G9dkcaBtmxOb67l1OAaXtw8x/unN9nTs5qrJ/fBW3GH5hTcP8ars328FHv55e3c2bOWvAgXZk8eh/gsmPDDd8z8dRzzp0xAX2EevtaalETb0ZYvXqMfzobiSNYVhAvr3OrT/IRBn6acUFqWRNNWFM/awljWFsSxoSqNzQ3ZbKzKZENlOhur01lfnkJLfiwrMkKojnUnz9+SVA8TYpyNiHYSEeNqwNbuVX/No2/ef8xYVS9GKbogIe+ChLQ9EotskZBxQkLRC0n1YCT0E5AQpSCjIcJBVw4bbfGeTll8rdTxsdTFSEWWWRN/4e9fj0Vi5CgBaF0lKVYVRnGmp5iLfWJ9cx1Xd67h4fE+DnRVszIviC2NCVzfs4anl4/w8fk9nl0/zaamKi7sHYCnl+DaboGbn5zo5dXxbri2k1t728mLckNq5kQm/PAt08b/wPxpE1BeMBUr7UVEuBpQkyhe1uJDR16QUMlbkxfK0gx/6jICWJ4TSUteLM15MQLYrYXRrMqLpKs8lb76XAHcjpJkNlZnsr5MLAMLoz7Jn4oYDwqD7El1NybaQZ9oZxGpvubs3tz+14C+fvcBYxaZMVLKDIl5xoyaY4jEHBESCywYJa5Na4QiYZD0BWh1Q+x1xBwthbOheGGqFj6WOhgqyjBz4nhhm9d//fd/MXb0aEw0ZIn1smDb8hQe71kmpN4PxEX7U4Oc7KtnR3MWlwYbeXfzIPz5iM8v73D10CDtVXkc6qrnz/P9cHWYB4c3cnffOj5cGhL2J93Yt4H0YCekZ09i7pSfkJkzERXpqRipzcFCR4pQZz1qklxYluxKU6oX4hpIbbInZUnu1GYG05Qbz4qcOFbkRrG6KI4WMTeXJbOxNpv20mSWZYbTmBFKS0EsrUtiacwIozIhgKJId3KCHEj1siDGSUSkkwF5YU4c3dH314C+evsBo+YaMHK+IaNmaTJyhhYSM3WRWGjJSGUfRmpHIaGf+P+iDkc9Oaw1F2Ovt5ggcRpqJ8JISYapv/zEV2Mk+O+//TdfjRmDhY48NSleXOiv5OnRTq4Nt/Ls3A5e/76T2ztXcHNoKX+c6BaogY/PePf0Nke2tLGyMIHu6lQeHOrkzblNHFtfzqUtDXz8bQDun+DCcCeJfrZoK8xCS3EmxpoLcTJXwMlMFlNtKaI99KiIs6My3pHlqV40pvlQmuBOSaIHlSkBVCQFURrnR3liANWpoVQkBtKcH0NHSSIdheIOTChN2cFUJ/hQFOFGRZwfVUkhFEb7kxnkQqKHFZEOIiHqyAqy49jO3r8G9LVbD/hqnh6Sc3WRnKHO6GlqjJmlw5jFNoxR82OMXgxj9WOFISJFXXOcDRWx1lyEnc5iAmy0CLITIVKWYcq4H/l27BjGSErw/d+/JcTZkF2rszm3uZKjnWWc31THy3NDvLm4lTs7G7myqZRHO5fz8cZe+PM+bx5dZ3vHUpryItjSkMbRdWUMLstiYGmaoCL6JF4R8eAUpwdXE+Fuho7ibEx1FuJqqUyQmxbejsqY6y0kzd+YwkgrcsOsqE9ypzrBjeIYV8rj3KhJ9qE62Z+qZH9q04KoTgumIMaD+tRA2gpiWJkVyOr8EGE6trMskaXpwZTFeVMU401BhBdZQY7EulsQZKOHt5k6af6WHNvR89eA/vDxI+d/v8HZ369z7tJ1zl+6zoUrN7l4/S6Xbz/gyp3HXLv3hOv3nlCSl4GrkRI22ouw0ZbCw0yFAFsDzDQUmDFhHP8UQrvRAtBJ/pac6a/mUEchRzrLub2zmVdnN/PnxQFuDjewZ2kcx1oyeXV+O/xxkxfXjtJZm0NrcSKXhlq5uaOFfWtKOLOxnjenN8Gtw0KZ9GhPA0GOhuirzMfOSJZQD22i/fQIclfH3UqRJRFW5ISZkRFkSk2iKxVxrpTFulIR60xlvCvlCZ6UxXtTluhLXrQ7aUH2FEW5UpUoBtKWuhRftjRk0FaSQF1aMDXJAZTH+1Ic6U5uoC2xriaCNtrTTJ1Yd2P29q/7a0D/z+nMv7+6tCwXN2MFAWQrzQU46MviZ62No6E6UtMnC0BLSoziu2/GEu4m4sTGcg61Fwih3Ztzg7w628/7y0P8PlBLZ5Y3W8ujeXp6O58eX+TGgW6WZYfS05DHy0v7+XjrME+P9fLieB+fru/n04MLfLpznN1rivG11sZUczHetmqkhpqQHGpEiHh7rqcu1ckO5IabkhFkJgBdmeBGSYwLhRF2LImwZ0m0izDDnRHqRJCjEX42+kS6mhDmoo+TSJmcYAfaCqOERCw32ImqRPFfQCAlkZ5CwSzGxZgAG13cTNTws9RiS+dfjDr+Hcr/+Vl9SRZOBjJYas3HQmO+kI57m6niZaaFluwCxv/wTyRHjeSrMZJY6ytyYF0R53qruHF4M+9vHOf1JbGSaIhj60tZGukk6AGfnN7O+7vnhGGgxswAhlaX8vbdnDBPAAAHg0lEQVTGSd4/vMjTU0M8O7qR9zcO8/7RFd7fOMbA8ny8LDWxN1IgytOQwgQ7MqPMCXHXEgBeleNOUYwVGcEWVIu7LImu5IXbkSkucQZZkx3hTGaECzHeVtiJVDHRlBHOExt9WUQq84j3MqcyyZNkcUfGSZe0QDvyoz3JCXEmxduKCBcT/MVAG6vgIlKiu3XZf96jy/NSMFefh0hxBkZKMzFVnYu9ngzupqo4GqqgKTuPyb/8wD+/+QqZeTPZtrqY80OtXNjbz6sHV3lycT9PT3axqzmHXG8rVqSGcPNAL6/unObGwQ00F0Sxs7OOV1eP8OrWae4dHRS65y8uH+DVvYu8unyUrvp8PCy18bRWIyHAlIIERzLCTYnw1qQiyYGWfD/KEp3ICLGkNEas1XAmP9RKGKVO8zMTut1ijvez08PaQAFDDSk0FWZhrbMYNzN5kgOsKU3wJFfcWfExI9bbkjhfWxK9rIhxNSZMfBCKOdpCE09TNbpXL//PA52XHIWW1GQ0pCajKzsNQ4UvYFtqLRS8215fFkeRMmaasjgZqzPYUsiR/rUcH97MzQtHODHUJpQmN9clkO1rQXmMBye2ruXO+d2c3dZCXU4Ig6tLuXNikNun93BuuJvfBldx5+Qwd347zI1DgzTmJ2Clp4SDiSLxgSZkR9kQ76tPpLc2xYn2NGR6Up5sT3KAEfnhNpRF25MfbMWSYGsy/MyI8zQh2seccA9TXMw0sDWUw05fChv9RdjqyxDlaiy05/LD7ckJcSQ1wIFId3NhCiHcUUSEk4hge32hHu1hrEJ3a+N/HuiUqGCU5oxHcc4ENKSmoCM7HT35GRgozESkNBMztbk4GMgRaKtDdaovW1tL2NZWR8+KctprM6nOCKAi2ZPaFC/Svc0ojHRl17oGTu/uYWdHDYUJXqwtT+D01hZODG1gT3cz+9eWcrKviVPbOznY3UhRnB9munI4miuSFGJKtJ8hXvbKhHlqUhhnS1mCE3nRVoL2JNFHnFSYEOdmQKqniBRPEZHuhgS5GOJprY27mQqeZgrY6ktjbySHtd5iXIxViPexJs7bmlgvK9L9bUjyNiXMSSSAHeIoIsBWDw8TZdwM5djQuvQ/D3RcqB+yM8chN2sCKgumoLZoGuqLpqCxeAqa0lPQk5uOhZpYWKJASbw7bZUJrCiIFk53bxsdjNQWYKMvR4SriAhHQ9ICHOlqLGSoaxkdNZmkBdtTEufOlqYCBtqWsqm5ms3LC+ipy2bT8mLW1+SQ4GuPsaY0bpaqgkf7u6jhYiVPkFiTIb5FSLA5cb4GBDmpEeygRbCtFr6WaoTYahJip4WXpQYOxqrYGynjZqaCk7ECZjrSOBkp4KAvg4nGItzMtfCxNcTTSpdAO12h5xhkb0CgnT7+1rp4mKghrly6iWTpWfO/AHSkvweLp49j8YxfkJ0zCfl5vyI/bxIK8yahOG8Sagsnoy09TfDwKHcjCuNcSQ6wwslEBakZk5g2/u/Izp2IhZb4DhCqhLlY0Jgfz+qKdEoSfYn2MCEjyIbl+TGsLM1kZXkuq0pTqEwOpCojgtrsaMJczTHVWoyblSphXoa4WCviYC6Nv5M60d4GRHjqE+SkgbOZmMbkcDNSEkJSdxNlnI0VsdKTx0xbHgtdeWxEiljpymKisRAHPTmstGTQVpiDsYY0tiIVbPQVsTVQxNVEFS8LTfystPE118DFQAEHHWlcDWToWf2/AHSguwMLp4xjwdRxSE3/hcWzxiMt2C/IzP4F+dnjBVOePxFnYyV8bbVwMlZGceEMfvhOXNL8BqmZP6O4YBqaMvNwMdOjODGQ8mR/YjzNCHE0ICvUnsq0YMozoqjJS6Q8NZgkP1syw1wpSQokzM0SS10ZIVHxc9HBUiSNldFC/BzVCHPTJdBZCz87Vaz0pTDWWICjgbwAtHi4x1ZPBjMtaUy0ZDHRlMVISxpz8XPVeVhoSmOksghNuVnoqczDTEcWS115LHUVsBep4G6qhpepOl7ig19PDjvtRbjoS9PVXPufp47wAE8Wz/r1/42Uyc2fgvyCL6a4YArKC6egsmAqqoumIVJbiEh1AbqK85kzdSI/f/93Fs4cj/z8X1k8ZwqLZk/DQl+TnLgA8mO9CHIUEeRkTF6MJxUZ4ZSlR1KZE09+XCDh7lbE+ztQkBhEhLc91oYquFtr4eOoj5GuDJYiWYLc9AjzFBHgokuAoxY2hnKY68ribqaOp4UWrsZqOIqUsNUXe7UiFnpKmOsrYm2ghKmGNMZashhryGKkthBTcU9UpIy9sbpgLmbimo4u3hY6uBipYKsnj4O+HJ6myvT+1TLp/xw5//urL1++4NGD+zx8cJ9HDx/8mz1++IB/s0f///mD+/e5f198zRcTX//gwX2ePnnM61cvef3qBS+ePeHl86fCzcnEt+X7vyZ+/eXzZ8KNwd788ZJXL57z7Mlj4f3ia548eSTcJOzliye8fPGUl8/Fn/NE+D/xzcPE7xHb86ePBRNf+2/29DFPHz/iyeNHws+njx/yVPyZwvvF130x4XPEj4XrH/H8qfizH/Puz7f8H9rqa5bUSSPbAAAAAElFTkSuQmCC;" vertex="1" parent="1">
          <mxGeometry x="195" y="327" width="110" height="117.33" as="geometry" />
        </mxCell>
        <mxCell id="QoQtWdzTlLFSfCSJSzJS-18" value="" style="whiteSpace=wrap;html=1;aspect=fixed;rounded=0;shadow=0;strokeWidth=1;fillColor=#fad7ac;strokeColor=#b46504;" vertex="1" parent="1">
          <mxGeometry x="395" y="501.5" width="85.5" height="85.5" as="geometry" />
        </mxCell>
        <mxCell id="QoQtWdzTlLFSfCSJSzJS-23" value="" style="ellipse;whiteSpace=wrap;html=1;aspect=fixed;rounded=0;shadow=0;strokeWidth=1;fillColor=#FF0000;" vertex="1" parent="1">
          <mxGeometry x="409.8473282442748" y="508.0381679389313" width="8.015267175572518" height="8.015267175572518" as="geometry" />
        </mxCell>
        <mxCell id="QoQtWdzTlLFSfCSJSzJS-24" value="" style="ellipse;whiteSpace=wrap;html=1;aspect=fixed;rounded=0;shadow=0;strokeWidth=1;fillColor=#0000CC;" vertex="1" parent="1">
          <mxGeometry x="409.8473282442748" y="521.1526717557251" width="8.015267175572518" height="8.015267175572518" as="geometry" />
        </mxCell>
        <mxCell id="QoQtWdzTlLFSfCSJSzJS-26" value="" style="ellipse;whiteSpace=wrap;html=1;aspect=fixed;rounded=0;shadow=0;strokeWidth=1;fillColor=#FF0000;" vertex="1" parent="1">
          <mxGeometry x="409.8473282442748" y="535.5801526717557" width="8.015267175572518" height="8.015267175572518" as="geometry" />
        </mxCell>
        <mxCell id="QoQtWdzTlLFSfCSJSzJS-27" value="" style="ellipse;whiteSpace=wrap;html=1;aspect=fixed;rounded=0;shadow=0;strokeWidth=1;fillColor=#FFFF00;" vertex="1" parent="1">
          <mxGeometry x="409.8473282442748" y="548.6946564885496" width="8.015267175572518" height="8.015267175572518" as="geometry" />
        </mxCell>
        <mxCell id="QoQtWdzTlLFSfCSJSzJS-40" value="" style="ellipse;whiteSpace=wrap;html=1;aspect=fixed;rounded=0;shadow=0;strokeWidth=1;fillColor=#FF0000;" vertex="1" parent="1">
          <mxGeometry x="460.9797709923664" y="532.9971755725192" width="8.015267175572518" height="8.015267175572518" as="geometry" />
        </mxCell>
        <mxCell id="QoQtWdzTlLFSfCSJSzJS-42" value="" style="ellipse;whiteSpace=wrap;html=1;aspect=fixed;rounded=0;shadow=0;strokeWidth=1;fillColor=#FFFF00;" vertex="1" parent="1">
          <mxGeometry x="460.9797709923664" y="521.1523664122137" width="8.015267175572518" height="8.015267175572518" as="geometry" />
        </mxCell>
        <mxCell id="QoQtWdzTlLFSfCSJSzJS-46" value="" style="endArrow=none;html=1;strokeWidth=1;entryX=0;entryY=0.5;entryDx=0;entryDy=0;exitX=1;exitY=1;exitDx=0;exitDy=0;" edge="1" parent="1" source="QoQtWdzTlLFSfCSJSzJS-23" target="QoQtWdzTlLFSfCSJSzJS-40">
          <mxGeometry width="50" height="50" relative="1" as="geometry">
            <mxPoint x="429.8854961832061" y="508.70992366412213" as="sourcePoint" />
            <mxPoint x="453.9312977099237" y="483.51908396946567" as="targetPoint" />
          </mxGeometry>
        </mxCell>
        <mxCell id="QoQtWdzTlLFSfCSJSzJS-47" value="" style="endArrow=none;html=1;strokeWidth=1;entryX=0;entryY=1;entryDx=0;entryDy=0;exitX=1;exitY=0.5;exitDx=0;exitDy=0;" edge="1" parent="1" source="QoQtWdzTlLFSfCSJSzJS-27" target="QoQtWdzTlLFSfCSJSzJS-42">
          <mxGeometry width="50" height="50" relative="1" as="geometry">
            <mxPoint x="421.0687022900763" y="566.6488549618321" as="sourcePoint" />
            <mxPoint x="461.14503816793894" y="521.3053435114504" as="targetPoint" />
          </mxGeometry>
        </mxCell>
        <mxCell id="QoQtWdzTlLFSfCSJSzJS-48" value="" style="endArrow=none;html=1;strokeWidth=1;exitX=1.032;exitY=0.377;exitDx=0;exitDy=0;exitPerimeter=0;entryX=0;entryY=0.5;entryDx=0;entryDy=0;" edge="1" parent="1" target="QoQtWdzTlLFSfCSJSzJS-40">
          <mxGeometry width="50" height="50" relative="1" as="geometry">
            <mxPoint x="418.1190839694658" y="539.6019083969464" as="sourcePoint" />
            <mxPoint x="460" y="521" as="targetPoint" />
          </mxGeometry>
        </mxCell>
        <mxCell id="QoQtWdzTlLFSfCSJSzJS-49" value="" style="ellipse;whiteSpace=wrap;html=1;aspect=fixed;rounded=0;shadow=0;strokeWidth=1;fillColor=#0000CC;" vertex="1" parent="1">
          <mxGeometry x="460.9797709923664" y="544.591679389313" width="8.015267175572518" height="8.015267175572518" as="geometry" />
        </mxCell>
        <mxCell id="QoQtWdzTlLFSfCSJSzJS-50" value="" style="endArrow=none;html=1;strokeWidth=1;entryX=0;entryY=0.5;entryDx=0;entryDy=0;exitX=1;exitY=1;exitDx=0;exitDy=0;" edge="1" parent="1" source="QoQtWdzTlLFSfCSJSzJS-24" target="QoQtWdzTlLFSfCSJSzJS-49">
          <mxGeometry width="50" height="50" relative="1" as="geometry">
            <mxPoint x="424.7040538940681" y="575.4358112240258" as="sourcePoint" />
            <mxPoint x="461.14503816793894" y="570.0076335877862" as="targetPoint" />
          </mxGeometry>
        </mxCell>
        <mxCell id="QoQtWdzTlLFSfCSJSzJS-53" value="" style="ellipse;whiteSpace=wrap;html=1;aspect=fixed;rounded=0;shadow=0;strokeWidth=1;fillColor=#0000CC;" vertex="1" parent="1">
          <mxGeometry x="409.8473282442748" y="560.969465648855" width="8.015267175572518" height="8.015267175572518" as="geometry" />
        </mxCell>
        <mxCell id="QoQtWdzTlLFSfCSJSzJS-54" value="" style="endArrow=none;html=1;strokeWidth=1;entryX=0;entryY=0.5;entryDx=0;entryDy=0;exitX=1.052;exitY=0.384;exitDx=0;exitDy=0;exitPerimeter=0;" edge="1" parent="1" source="QoQtWdzTlLFSfCSJSzJS-53" target="QoQtWdzTlLFSfCSJSzJS-49">
          <mxGeometry width="50" height="50" relative="1" as="geometry">
            <mxPoint x="421.0651225963571" y="576.5022234377675" as="sourcePoint" />
            <mxPoint x="457.50610687022396" y="561.8374045801527" as="targetPoint" />
          </mxGeometry>
        </mxCell>
        <mxCell id="QoQtWdzTlLFSfCSJSzJS-56" value="" style="ellipse;whiteSpace=wrap;html=1;aspect=fixed;rounded=0;shadow=0;strokeWidth=1;fillColor=#FFFF00;" vertex="1" parent="1">
          <mxGeometry x="461.1297709923664" y="556.4503816793894" width="8.015267175572518" height="8.015267175572518" as="geometry" />
        </mxCell>
        <mxCell id="QoQtWdzTlLFSfCSJSzJS-57" value="" style="endArrow=none;html=1;strokeWidth=1;entryX=0;entryY=0.5;entryDx=0;entryDy=0;exitX=1;exitY=0.5;exitDx=0;exitDy=0;" edge="1" parent="1" source="QoQtWdzTlLFSfCSJSzJS-27" target="QoQtWdzTlLFSfCSJSzJS-56">
          <mxGeometry width="50" height="50" relative="1" as="geometry">
            <mxPoint x="426.1343511450381" y="547.142748091603" as="sourcePoint" />
            <mxPoint x="461.14503816793456" y="530.5419847328244" as="targetPoint" />
          </mxGeometry>
        </mxCell>
        <mxCell id="QoQtWdzTlLFSfCSJSzJS-60" value="" style="ellipse;whiteSpace=wrap;html=1;aspect=fixed;rounded=0;shadow=0;strokeWidth=1;fillColor=#FFFF00;" vertex="1" parent="1">
          <mxGeometry x="409.8473282442748" y="573.4045801526718" width="8.015267175572518" height="8.015267175572518" as="geometry" />
        </mxCell>
        <mxCell id="QoQtWdzTlLFSfCSJSzJS-61" value="" style="endArrow=none;html=1;strokeWidth=1;entryX=0;entryY=0.5;entryDx=0;entryDy=0;exitX=1;exitY=0.5;exitDx=0;exitDy=0;" edge="1" parent="1" source="QoQtWdzTlLFSfCSJSzJS-60" target="QoQtWdzTlLFSfCSJSzJS-56">
          <mxGeometry width="50" height="50" relative="1" as="geometry">
            <mxPoint x="425.87786259541986" y="563.2900763358779" as="sourcePoint" />
            <mxPoint x="461.14503816793894" y="575.0458015267176" as="targetPoint" />
          </mxGeometry>
        </mxCell>
        <mxCell id="QoQtWdzTlLFSfCSJSzJS-62" value="" style="endArrow=none;html=1;strokeWidth=1;entryX=0;entryY=1;entryDx=0;entryDy=0;exitX=1;exitY=0.5;exitDx=0;exitDy=0;" edge="1" parent="1" source="QoQtWdzTlLFSfCSJSzJS-60" target="QoQtWdzTlLFSfCSJSzJS-42">
          <mxGeometry width="50" height="50" relative="1" as="geometry">
            <mxPoint x="421.0687022900763" y="583.4427480916031" as="sourcePoint" />
            <mxPoint x="469.1603053435115" y="583.4427480916031" as="targetPoint" />
          </mxGeometry>
        </mxCell>
      </root>
    </mxGraphModel>
  </diagram>
</mxfile>
